ISO-10303-21;
HEADER;
FILE_DESCRIPTION(('Open CASCADE Model'),'2;1');
FILE_NAME('Open CASCADE Shape Model','2026-10-03T12:55:57',('Author'),(
    'Open CASCADE'),'Open CASCADE STEP processor 8.0','build123d',
  'Unknown');
FILE_SCHEMA(('AUTOMOTIVE_DESIGN { 1 0 10303 214 1 1 1 1 }'));
ENDSEC;
DATA;
#1 = APPLICATION_PROTOCOL_DEFINITION('international standard',
  'automotive_design',2000,#2);
#2 = APPLICATION_CONTEXT(
  'core data for automotive mechanical design processes');
#3 = SHAPE_DEFINITION_REPRESENTATION(#4,#10);
#4 = PRODUCT_DEFINITION_SHAPE('','',#5);
#5 = PRODUCT_DEFINITION('design','',#6,#9);
#6 = PRODUCT_DEFINITION_FORMATION('','',#7);
#7 = PRODUCT('=>[0:1:1:2]','=>[0:1:1:2]','',(#8));
#8 = PRODUCT_CONTEXT('',#2,'mechanical');
#9 = PRODUCT_DEFINITION_CONTEXT('part definition',#2,'design');
#10 = SHAPE_REPRESENTATION('',(#11,#15),#19);
#11 = AXIS2_PLACEMENT_3D('',#12,#13,#14);
#12 = CARTESIAN_POINT('',(0.,0.,0.));
#13 = DIRECTION('',(0.,0.,1.));
#14 = DIRECTION('',(1.,0.,-0.));
#15 = AXIS2_PLACEMENT_3D('',#16,#17,#18);
#16 = CARTESIAN_POINT('',(0.,0.,0.));
#17 = DIRECTION('',(0.,0.,1.));
#18 = DIRECTION('',(1.,0.,-0.));
#19 = ( GEOMETRIC_REPRESENTATION_CONTEXT(3) 
GLOBAL_UNCERTAINTY_ASSIGNED_CONTEXT((#23)) GLOBAL_UNIT_ASSIGNED_CONTEXT(
(#20,#21,#22)) REPRESENTATION_CONTEXT('Context #1',
  '3D Context with UNIT and UNCERTAINTY') );
#20 = ( LENGTH_UNIT() NAMED_UNIT(*) SI_UNIT(.MILLI.,.METRE.) );
#21 = ( NAMED_UNIT(*) PLANE_ANGLE_UNIT() SI_UNIT($,.RADIAN.) );
#22 = ( NAMED_UNIT(*) SI_UNIT($,.STERADIAN.) SOLID_ANGLE_UNIT() );
#23 = UNCERTAINTY_MEASURE_WITH_UNIT(LENGTH_MEASURE(2.E-07),#20,
  'distance_accuracy_value','confusion accuracy');
#24 = PRODUCT_RELATED_PRODUCT_CATEGORY('part',$,(#7));
#25 = SHAPE_DEFINITION_REPRESENTATION(#26,#32);
#26 = PRODUCT_DEFINITION_SHAPE('','',#27);
#27 = PRODUCT_DEFINITION('design','',#28,#31);
#28 = PRODUCT_DEFINITION_FORMATION('','',#29);
#29 = PRODUCT('COMPOUND','COMPOUND','',(#30));
#30 = PRODUCT_CONTEXT('',#2,'mechanical');
#31 = PRODUCT_DEFINITION_CONTEXT('part definition',#2,'design');
#32 = ADVANCED_BREP_SHAPE_REPRESENTATION('',(#11,#33),#1351);
#33 = MANIFOLD_SOLID_BREP('',#34);
#34 = CLOSED_SHELL('',(#35,#513,#548,#578,#948,#1318));
#35 = ADVANCED_FACE('',(#36,#123,#318),#50,.T.);
#36 = FACE_BOUND('',#37,.T.);
#37 = EDGE_LOOP('',(#38,#68,#95,#96));
#38 = ORIENTED_EDGE('',*,*,#39,.T.);
#39 = EDGE_CURVE('',#40,#42,#44,.T.);
#40 = VERTEX_POINT('',#41);
#41 = CARTESIAN_POINT('',(16.,150.,-3.722556049603E-14));
#42 = VERTEX_POINT('',#43);
#43 = CARTESIAN_POINT('',(16.,-150.,2.938782098148E-14));
#44 = SEAM_CURVE('',#45,(#49,#61),.PCURVE_S1.);
#45 = LINE('',#46,#47);
#46 = CARTESIAN_POINT('',(16.,150.,-3.722556049603E-14));
#47 = VECTOR('',#48,1.);
#48 = DIRECTION('',(0.,-1.,2.22044604925E-16));
#49 = PCURVE('',#50,#55);
#50 = CYLINDRICAL_SURFACE('',#51,16.);
#51 = AXIS2_PLACEMENT_3D('',#52,#53,#54);
#52 = CARTESIAN_POINT('',(0.,150.,-3.330669073875E-14));
#53 = DIRECTION('',(0.,-1.,2.22044604925E-16));
#54 = DIRECTION('',(1.,0.,0.));
#55 = DEFINITIONAL_REPRESENTATION('',(#56),#60);
#56 = LINE('',#57,#58);
#57 = CARTESIAN_POINT('',(6.28318530718,-0.));
#58 = VECTOR('',#59,1.);
#59 = DIRECTION('',(0.,1.));
#60 = ( GEOMETRIC_REPRESENTATION_CONTEXT(2) 
PARAMETRIC_REPRESENTATION_CONTEXT() REPRESENTATION_CONTEXT('2D SPACE',''
  ) );
#61 = PCURVE('',#50,#62);
#62 = DEFINITIONAL_REPRESENTATION('',(#63),#67);
#63 = LINE('',#64,#65);
#64 = CARTESIAN_POINT('',(0.,-0.));
#65 = VECTOR('',#66,1.);
#66 = DIRECTION('',(0.,1.));
#67 = ( GEOMETRIC_REPRESENTATION_CONTEXT(2) 
PARAMETRIC_REPRESENTATION_CONTEXT() REPRESENTATION_CONTEXT('2D SPACE',''
  ) );
#68 = ORIENTED_EDGE('',*,*,#69,.F.);
#69 = EDGE_CURVE('',#42,#42,#70,.T.);
#70 = SURFACE_CURVE('',#71,(#76,#83),.PCURVE_S1.);
#71 = CIRCLE('',#72,16.);
#72 = AXIS2_PLACEMENT_3D('',#73,#74,#75);
#73 = CARTESIAN_POINT('',(0.,-150.,3.330669073875E-14));
#74 = DIRECTION('',(0.,-1.,2.22044604925E-16));
#75 = DIRECTION('',(1.,0.,0.));
#76 = PCURVE('',#50,#77);
#77 = DEFINITIONAL_REPRESENTATION('',(#78),#82);
#78 = LINE('',#79,#80);
#79 = CARTESIAN_POINT('',(0.,300.));
#80 = VECTOR('',#81,1.);
#81 = DIRECTION('',(1.,0.));
#82 = ( GEOMETRIC_REPRESENTATION_CONTEXT(2) 
PARAMETRIC_REPRESENTATION_CONTEXT() REPRESENTATION_CONTEXT('2D SPACE',''
  ) );
#83 = PCURVE('',#84,#89);
#84 = PLANE('',#85);
#85 = AXIS2_PLACEMENT_3D('',#86,#87,#88);
#86 = CARTESIAN_POINT('',(0.,-150.,3.330669073875E-14));
#87 = DIRECTION('',(0.,-1.,2.22044604925E-16));
#88 = DIRECTION('',(1.,0.,0.));
#89 = DEFINITIONAL_REPRESENTATION('',(#90),#94);
#90 = CIRCLE('',#91,16.);
#91 = AXIS2_PLACEMENT_2D('',#92,#93);
#92 = CARTESIAN_POINT('',(0.,0.));
#93 = DIRECTION('',(1.,0.));
#94 = ( GEOMETRIC_REPRESENTATION_CONTEXT(2) 
PARAMETRIC_REPRESENTATION_CONTEXT() REPRESENTATION_CONTEXT('2D SPACE',''
  ) );
#95 = ORIENTED_EDGE('',*,*,#39,.F.);
#96 = ORIENTED_EDGE('',*,*,#97,.T.);
#97 = EDGE_CURVE('',#40,#40,#98,.T.);
#98 = SURFACE_CURVE('',#99,(#104,#111),.PCURVE_S1.);
#99 = CIRCLE('',#100,16.);
#100 = AXIS2_PLACEMENT_3D('',#101,#102,#103);
#101 = CARTESIAN_POINT('',(0.,150.,-3.330669073875E-14));
#102 = DIRECTION('',(0.,-1.,2.22044604925E-16));
#103 = DIRECTION('',(1.,0.,0.));
#104 = PCURVE('',#50,#105);
#105 = DEFINITIONAL_REPRESENTATION('',(#106),#110);
#106 = LINE('',#107,#108);
#107 = CARTESIAN_POINT('',(0.,0.));
#108 = VECTOR('',#109,1.);
#109 = DIRECTION('',(1.,0.));
#110 = ( GEOMETRIC_REPRESENTATION_CONTEXT(2) 
PARAMETRIC_REPRESENTATION_CONTEXT() REPRESENTATION_CONTEXT('2D SPACE',''
  ) );
#111 = PCURVE('',#112,#117);
#112 = PLANE('',#113);
#113 = AXIS2_PLACEMENT_3D('',#114,#115,#116);
#114 = CARTESIAN_POINT('',(0.,150.,-3.330669073875E-14));
#115 = DIRECTION('',(0.,-1.,2.22044604925E-16));
#116 = DIRECTION('',(1.,0.,0.));
#117 = DEFINITIONAL_REPRESENTATION('',(#118),#122);
#118 = CIRCLE('',#119,16.);
#119 = AXIS2_PLACEMENT_2D('',#120,#121);
#120 = CARTESIAN_POINT('',(0.,0.));
#121 = DIRECTION('',(1.,0.));
#122 = ( GEOMETRIC_REPRESENTATION_CONTEXT(2) 
PARAMETRIC_REPRESENTATION_CONTEXT() REPRESENTATION_CONTEXT('2D SPACE',''
  ) );
#123 = FACE_BOUND('',#124,.T.);
#124 = EDGE_LOOP('',(#125));
#125 = ORIENTED_EDGE('',*,*,#126,.F.);
#126 = EDGE_CURVE('',#127,#127,#129,.T.);
#127 = VERTEX_POINT('',#128);
#128 = CARTESIAN_POINT('',(5.,-1.224646799147E-15,15.198684153571));
#129 = SURFACE_CURVE('',#130,(#189,#251),.PCURVE_S1.);
#130 = B_SPLINE_CURVE_WITH_KNOTS('',8,(#131,#132,#133,#134,#135,#136,
    #137,#138,#139,#140,#141,#142,#143,#144,#145,#146,#147,#148,#149,
    #150,#151,#152,#153,#154,#155,#156,#157,#158,#159,#160,#161,#162,
    #163,#164,#165,#166,#167,#168,#169,#170,#171,#172,#173,#174,#175,
    #176,#177,#178,#179,#180,#181,#182,#183,#184,#185,#186,#187,#188),
  .UNSPECIFIED.,.T.,.F.,(9,7,7,7,7,7,7,7,9),(0.,0.148172939793,
    0.249190842454,0.381998073109,0.501317532792,0.652087658707,
    0.774060577985,0.873930535792,1.),.UNSPECIFIED.);
#131 = CARTESIAN_POINT('',(5.,-8.881784197001E-16,15.198684153571));
#132 = CARTESIAN_POINT('',(5.,0.506896475221,15.198684153571));
#133 = CARTESIAN_POINT('',(4.941269404994,1.012225043538,15.218004685249
    ));
#134 = CARTESIAN_POINT('',(4.824447621309,1.512316891978,15.256437717228
    ));
#135 = CARTESIAN_POINT('',(4.648673855139,2.003310390811,15.312852967219
    ));
#136 = CARTESIAN_POINT('',(4.412005726552,2.480361916243,15.385152135911
    ));
#137 = CARTESIAN_POINT('',(4.111619821177,2.937096572726,15.469956729982
    ));
#138 = CARTESIAN_POINT('',(3.744155004865,3.364762862272,15.562176465926
    ));
#139 = CARTESIAN_POINT('',(3.00822551687,4.013571981557,15.717619191818)
  );
#140 = CARTESIAN_POINT('',(2.670609060398,4.263021030334,15.782142157476
    ));
#141 = CARTESIAN_POINT('',(2.29515021507,4.488936561284,15.844855653361)
  );
#142 = CARTESIAN_POINT('',(1.884879323051,4.682592500526,15.90179707538)
  );
#143 = CARTESIAN_POINT('',(1.444215625968,4.83643486731,15.948888000335)
  );
#144 = CARTESIAN_POINT('',(0.978713195748,4.944027022122,15.982507757471
    ));
#145 = CARTESIAN_POINT('',(0.494855484899,5.,16.));
#146 = CARTESIAN_POINT('',(-0.650581578045,5.,16.));
#147 = CARTESIAN_POINT('',(-1.274743449643,4.903256028863,
    15.969767299455));
#148 = CARTESIAN_POINT('',(-1.85941650358,4.723515348135,15.913599635812
    ));
#149 = CARTESIAN_POINT('',(-2.395138998981,4.474163902601,
    15.838628930767));
#150 = CARTESIAN_POINT('',(-2.875015933437,4.168947753291,
    15.752983206887));
#151 = CARTESIAN_POINT('',(-3.294707340001,3.822149648725,
    15.664762471815));
#152 = CARTESIAN_POINT('',(-3.652735611914,3.448765411925,
    15.580504408969));
#153 = CARTESIAN_POINT('',(-4.218545920126,2.719327157914,
    15.436328161735));
#154 = CARTESIAN_POINT('',(-4.444982748307,2.356226530507,
    15.373000629283));
#155 = CARTESIAN_POINT('',(-4.631533218154,1.979744701379,
    15.317149974934));
#156 = CARTESIAN_POINT('',(-4.779470847113,1.593380309373,
    15.270680599279));
#157 = CARTESIAN_POINT('',(-4.88980541773,1.199946606899,15.234935404524
    ));
#158 = CARTESIAN_POINT('',(-4.963217130647,0.801824756063,
    15.210784863944));
#159 = CARTESIAN_POINT('',(-5.,0.40115780268,15.198684153571));
#160 = CARTESIAN_POINT('',(-5.,-0.506896465861,15.198684153571));
#161 = CARTESIAN_POINT('',(-4.941269398517,-1.012225071309,
    15.218004686785));
#162 = CARTESIAN_POINT('',(-4.824447635577,-1.51231686296,
    15.256437713916));
#163 = CARTESIAN_POINT('',(-4.648673849393,-2.003310389318,
    15.312852968447));
#164 = CARTESIAN_POINT('',(-4.412005712569,-2.480361945343,
    15.385152139169));
#165 = CARTESIAN_POINT('',(-4.111619840252,-2.937096548238,
    15.469956725762));
#166 = CARTESIAN_POINT('',(-3.744154996686,-3.364762869483,
    15.562176467654));
#167 = CARTESIAN_POINT('',(-2.952544756304,-4.062661175309,
    15.729380059324));
#168 = CARTESIAN_POINT('',(-2.536492015166,-4.361590339973,
    15.807700282537));
#169 = CARTESIAN_POINT('',(-2.062594454819,-4.624601044313,
    15.883005899805));
#170 = CARTESIAN_POINT('',(-1.539178623332,-4.833992633501,
    15.947266576238));
#171 = CARTESIAN_POINT('',(-0.978315792642,-4.97663578241,
    15.992655879934));
#172 = CARTESIAN_POINT('',(-0.394119242194,-5.04376918583,
    16.013973248465));
#173 = CARTESIAN_POINT('',(0.19791409623,-5.030979115576,16.009466119324
    ));
#174 = CARTESIAN_POINT('',(1.260555928877,-4.862673183647,
    15.957455870052));
#175 = CARTESIAN_POINT('',(1.713493457421,-4.736646345582,15.91888158281
    ));
#176 = CARTESIAN_POINT('',(2.1370367658,-4.567756737676,15.868300416469)
  );
#177 = CARTESIAN_POINT('',(2.528488208221,-4.362798493136,
    15.809275474252));
#178 = CARTESIAN_POINT('',(2.886112586854,-4.128174200637,
    15.745355030105));
#179 = CARTESIAN_POINT('',(3.20898402499,-3.870015284406,15.679792973692
    ));
#180 = CARTESIAN_POINT('',(3.496932572095,-3.594237896755,
    15.615361894678));
#181 = CARTESIAN_POINT('',(4.070712562502,-2.943412250181,
    15.477007447918));
#182 = CARTESIAN_POINT('',(4.340791761002,-2.556059371688,
    15.403914505897));
#183 = CARTESIAN_POINT('',(4.562756456071,-2.151033637874,
    15.338659121327));
#184 = CARTESIAN_POINT('',(4.73843903845,-1.733159837505,15.283953449873
    ));
#185 = CARTESIAN_POINT('',(4.869306097415,-1.306209571499,
    15.241679323956));
#186 = CARTESIAN_POINT('',(4.956348076697,-0.873270649304,15.2130445574)
  );
#187 = CARTESIAN_POINT('',(5.,-0.437008851676,15.198684153571));
#188 = CARTESIAN_POINT('',(5.,-8.881784197001E-16,15.198684153571));
#189 = PCURVE('',#50,#190);
#190 = DEFINITIONAL_REPRESENTATION('',(#191),#250);
#191 = B_SPLINE_CURVE_WITH_KNOTS('',8,(#192,#193,#194,#195,#196,#197,
    #198,#199,#200,#201,#202,#203,#204,#205,#206,#207,#208,#209,#210,
    #211,#212,#213,#214,#215,#216,#217,#218,#219,#220,#221,#222,#223,
    #224,#225,#226,#227,#228,#229,#230,#231,#232,#233,#234,#235,#236,
    #237,#238,#239,#240,#241,#242,#243,#244,#245,#246,#247,#248,#249),
  .UNSPECIFIED.,.T.,.F.,(9,7,7,7,7,7,7,7,9),(0.,0.148172939793,
    0.249190842454,0.381998073109,0.501317532792,0.652087658707,
    0.774060577985,0.873930535792,1.),.UNSPECIFIED.);
#192 = CARTESIAN_POINT('',(1.252972622867,150.));
#193 = CARTESIAN_POINT('',(1.252972622867,149.49310352477));
#194 = CARTESIAN_POINT('',(1.256836796512,148.98777495646));
#195 = CARTESIAN_POINT('',(1.264523172191,148.48768310802));
#196 = CARTESIAN_POINT('',(1.276060605981,147.99668960918));
#197 = CARTESIAN_POINT('',(1.291523809151,147.51963808375));
#198 = CARTESIAN_POINT('',(1.311021274986,147.06290342727));
#199 = CARTESIAN_POINT('',(1.334683180713,146.63523713772));
#200 = CARTESIAN_POINT('',(1.38169359563,145.98642801844));
#201 = CARTESIAN_POINT('',(1.403172486761,145.73697896966));
#202 = CARTESIAN_POINT('',(1.426952752125,145.51106343871));
#203 = CARTESIAN_POINT('',(1.452819352547,145.31740749947));
#204 = CARTESIAN_POINT('',(1.480487849074,145.16356513269));
#205 = CARTESIAN_POINT('',(1.50962672605,145.05597297787));
#206 = CARTESIAN_POINT('',(1.539867858989,145.));
#207 = CARTESIAN_POINT('',(1.611457675423,145.));
#208 = CARTESIAN_POINT('',(1.650467784344,145.09674397113));
#209 = CARTESIAN_POINT('',(1.687112343691,145.27648465186));
#210 = CARTESIAN_POINT('',(1.72086720218,145.5258360974));
#211 = CARTESIAN_POINT('',(1.751302704609,145.8310522467));
#212 = CARTESIAN_POINT('',(1.77809353287,146.17785035127));
#213 = CARTESIAN_POINT('',(1.801077726264,146.55123458807));
#214 = CARTESIAN_POINT('',(1.837570881398,147.28067284208));
#215 = CARTESIAN_POINT('',(1.852262274935,147.64377346949));
#216 = CARTESIAN_POINT('',(1.864430413429,148.02025529862));
#217 = CARTESIAN_POINT('',(1.874121076824,148.40661969062));
#218 = CARTESIAN_POINT('',(1.881369753681,148.8000533931));
#219 = CARTESIAN_POINT('',(1.886199897345,149.19817524393));
#220 = CARTESIAN_POINT('',(1.888620030723,149.59884219732));
#221 = CARTESIAN_POINT('',(1.888620030723,150.50689646586));
#222 = CARTESIAN_POINT('',(1.884755856661,151.0122250713));
#223 = CARTESIAN_POINT('',(1.877069482315,151.51231686296));
#224 = CARTESIAN_POINT('',(1.865532047241,152.00331038931));
#225 = CARTESIAN_POINT('',(1.850068843541,152.48036194534));
#226 = CARTESIAN_POINT('',(1.830571379825,152.93709654823));
#227 = CARTESIAN_POINT('',(1.806909472354,153.36476286948));
#228 = CARTESIAN_POINT('',(1.756342228535,154.0626611753));
#229 = CARTESIAN_POINT('',(1.729888676564,154.36159033997));
#230 = CARTESIAN_POINT('',(1.6999191139,154.62460104431));
#231 = CARTESIAN_POINT('',(1.667003975538,154.8339926335));
#232 = CARTESIAN_POINT('',(1.631900598009,154.9766357824));
#233 = CARTESIAN_POINT('',(1.595422507529,155.04376918583));
#234 = CARTESIAN_POINT('',(1.558450915294,155.03097911557));
#235 = CARTESIAN_POINT('',(1.491956298192,154.86267318364));
#236 = CARTESIAN_POINT('',(1.463563697094,154.73664634558));
#237 = CARTESIAN_POINT('',(1.436928442937,154.56775673767));
#238 = CARTESIAN_POINT('',(1.412206759928,154.36279849313));
#239 = CARTESIAN_POINT('',(1.389514383763,154.12817420063));
#240 = CARTESIAN_POINT('',(1.368930066866,153.8700152844));
#241 = CARTESIAN_POINT('',(1.350490747664,153.59423789675));
#242 = CARTESIAN_POINT('',(1.313601691533,152.94341225018));
#243 = CARTESIAN_POINT('',(1.296121192834,152.55605937168));
#244 = CARTESIAN_POINT('',(1.281665620367,152.15103363787));
#245 = CARTESIAN_POINT('',(1.27016685396,151.7331598375));
#246 = CARTESIAN_POINT('',(1.261571665379,151.30620957149));
#247 = CARTESIAN_POINT('',(1.25584470377,150.8732706493));
#248 = CARTESIAN_POINT('',(1.252972622867,150.43700885167));
#249 = CARTESIAN_POINT('',(1.252972622867,150.));
#250 = ( GEOMETRIC_REPRESENTATION_CONTEXT(2) 
PARAMETRIC_REPRESENTATION_CONTEXT() REPRESENTATION_CONTEXT('2D SPACE',''
  ) );
#251 = PCURVE('',#252,#257);
#252 = CYLINDRICAL_SURFACE('',#253,5.);
#253 = AXIS2_PLACEMENT_3D('',#254,#255,#256);
#254 = CARTESIAN_POINT('',(0.,0.,-18.));
#255 = DIRECTION('',(0.,0.,1.));
#256 = DIRECTION('',(1.,0.,-0.));
#257 = DEFINITIONAL_REPRESENTATION('',(#258),#317);
#258 = B_SPLINE_CURVE_WITH_KNOTS('',8,(#259,#260,#261,#262,#263,#264,
    #265,#266,#267,#268,#269,#270,#271,#272,#273,#274,#275,#276,#277,
    #278,#279,#280,#281,#282,#283,#284,#285,#286,#287,#288,#289,#290,
    #291,#292,#293,#294,#295,#296,#297,#298,#299,#300,#301,#302,#303,
    #304,#305,#306,#307,#308,#309,#310,#311,#312,#313,#314,#315,#316),
  .UNSPECIFIED.,.F.,.F.,(9,7,7,7,7,7,7,7,9),(0.,0.148172939793,
    0.249190842454,0.381998073109,0.501317532792,0.652087658707,
    0.774060577985,0.873930535792,1.),.UNSPECIFIED.);
#259 = CARTESIAN_POINT('',(0.,33.198684153571));
#260 = CARTESIAN_POINT('',(0.101379295044,33.198684153571));
#261 = CARTESIAN_POINT('',(0.202444654841,33.218004685249));
#262 = CARTESIAN_POINT('',(0.304052051715,33.256437717228));
#263 = CARTESIAN_POINT('',(0.406971076369,33.312852967219));
#264 = CARTESIAN_POINT('',(0.511971684471,33.385152135911));
#265 = CARTESIAN_POINT('',(0.619862457267,33.469956729982));
#266 = CARTESIAN_POINT('',(0.731555114321,33.562176465926));
#267 = CARTESIAN_POINT('',(0.927773919186,33.717619191818));
#268 = CARTESIAN_POINT('',(1.011416690606,33.782142157476));
#269 = CARTESIAN_POINT('',(1.098390528519,33.844855653361));
#270 = CARTESIAN_POINT('',(1.188187281994,33.90179707538));
#271 = CARTESIAN_POINT('',(1.280475810704,33.948888000335));
#272 = CARTESIAN_POINT('',(1.37505374174,33.982507757471));
#273 = CARTESIAN_POINT('',(1.471825229815,34.));
#274 = CARTESIAN_POINT('',(1.700912642404,34.));
#275 = CARTESIAN_POINT('',(1.825745201322,33.969767299454));
#276 = CARTESIAN_POINT('',(1.94603544508,33.913599635812));
#277 = CARTESIAN_POINT('',(2.062109324412,33.838628930767));
#278 = CARTESIAN_POINT('',(2.174057856827,33.752983206887));
#279 = CARTESIAN_POINT('',(2.281709749259,33.664762471815));
#280 = CARTESIAN_POINT('',(2.384603825322,33.580504408969));
#281 = CARTESIAN_POINT('',(2.569235509634,33.436328161735));
#282 = CARTESIAN_POINT('',(2.654373654543,33.373000629283));
#283 = CARTESIAN_POINT('',(2.737753387109,33.317149974934));
#284 = CARTESIAN_POINT('',(2.819776819522,33.270680599279));
#285 = CARTESIAN_POINT('',(2.90081617258,33.234935404524));
#286 = CARTESIAN_POINT('',(2.981227772159,33.210784863944));
#287 = CARTESIAN_POINT('',(3.061361093054,33.198684153571));
#288 = CARTESIAN_POINT('',(3.242971946762,33.198684153571));
#289 = CARTESIAN_POINT('',(3.344037314473,33.218004686785));
#290 = CARTESIAN_POINT('',(3.44564469838,33.256437713916));
#291 = CARTESIAN_POINT('',(3.548563730176,33.312852968447));
#292 = CARTESIAN_POINT('',(3.653564344975,33.385152139169));
#293 = CARTESIAN_POINT('',(3.761455104339,33.469956725762));
#294 = CARTESIAN_POINT('',(3.873147770092,33.562176467654));
#295 = CARTESIAN_POINT('',(4.084212577007,33.729380059324));
#296 = CARTESIAN_POINT('',(4.186167020808,33.807700282537));
#297 = CARTESIAN_POINT('',(4.293328755026,33.883005899805));
#298 = CARTESIAN_POINT('',(4.404258909504,33.947266576238));
#299 = CARTESIAN_POINT('',(4.517988349227,33.992655879934));
#300 = CARTESIAN_POINT('',(4.633811184107,34.013973248465));
#301 = CARTESIAN_POINT('',(4.751160396807,34.009466119324));
#302 = CARTESIAN_POINT('',(4.966337956158,33.957455870052));
#303 = CARTESIAN_POINT('',(5.059753296858,33.91888158281));
#304 = CARTESIAN_POINT('',(5.150087591024,33.868300416469));
#305 = CARTESIAN_POINT('',(5.237568512509,33.809275474252));
#306 = CARTESIAN_POINT('',(5.322337195337,33.745355030105));
#307 = CARTESIAN_POINT('',(5.404458730464,33.679792973692));
#308 = CARTESIAN_POINT('',(5.483916070638,33.615361894678));
#309 = CARTESIAN_POINT('',(5.657443878166,33.477007447918));
#310 = CARTESIAN_POINT('',(5.751276880222,33.403914505897));
#311 = CARTESIAN_POINT('',(5.842779845089,33.338659121327));
#312 = CARTESIAN_POINT('',(5.932498562681,33.283953449873));
#313 = CARTESIAN_POINT('',(6.020925737535,33.241679323956));
#314 = CARTESIAN_POINT('',(6.108531271754,33.2130445574));
#315 = CARTESIAN_POINT('',(6.195783536844,33.198684153571));
#316 = CARTESIAN_POINT('',(6.28318530718,33.198684153571));
#317 = ( GEOMETRIC_REPRESENTATION_CONTEXT(2) 
PARAMETRIC_REPRESENTATION_CONTEXT() REPRESENTATION_CONTEXT('2D SPACE',''
  ) );
#318 = FACE_BOUND('',#319,.T.);
#319 = EDGE_LOOP('',(#320));
#320 = ORIENTED_EDGE('',*,*,#321,.T.);
#321 = EDGE_CURVE('',#322,#322,#324,.T.);
#322 = VERTEX_POINT('',#323);
#323 = CARTESIAN_POINT('',(5.,-1.224646799147E-15,-15.19868415357));
#324 = SURFACE_CURVE('',#325,(#384,#446),.PCURVE_S1.);
#325 = B_SPLINE_CURVE_WITH_KNOTS('',8,(#326,#327,#328,#329,#330,#331,
    #332,#333,#334,#335,#336,#337,#338,#339,#340,#341,#342,#343,#344,
    #345,#346,#347,#348,#349,#350,#351,#352,#353,#354,#355,#356,#357,
    #358,#359,#360,#361,#362,#363,#364,#365,#366,#367,#368,#369,#370,
    #371,#372,#373,#374,#375,#376,#377,#378,#379,#380,#381,#382,#383),
  .UNSPECIFIED.,.T.,.F.,(9,7,7,7,7,7,7,7,9),(0.,0.150946729333,
    0.27306251785,0.410486977687,0.568423990968,0.707550608802,
    0.816959755982,0.903348941651,1.),.UNSPECIFIED.);
#326 = CARTESIAN_POINT('',(5.,-8.881784197001E-16,-15.19868415357));
#327 = CARTESIAN_POINT('',(5.,0.506896475222,-15.19868415357));
#328 = CARTESIAN_POINT('',(4.941269404994,1.012225043537,-15.21800468524
    ));
#329 = CARTESIAN_POINT('',(4.82444762131,1.512316891978,-15.25643771722)
  );
#330 = CARTESIAN_POINT('',(4.648673855139,2.003310390812,-15.31285296721
    ));
#331 = CARTESIAN_POINT('',(4.412005726551,2.480361916242,-15.38515213591
    ));
#332 = CARTESIAN_POINT('',(4.111619821179,2.937096572726,-15.46995672998
    ));
#333 = CARTESIAN_POINT('',(3.744155004864,3.364762862273,-15.56217646592
    ));
#334 = CARTESIAN_POINT('',(2.952544757789,4.062661174,-15.72938005901));
#335 = CARTESIAN_POINT('',(2.536492006865,4.361590344694,-15.80770028368
    ));
#336 = CARTESIAN_POINT('',(2.062594475212,4.624601036397,-15.88300589786
    ));
#337 = CARTESIAN_POINT('',(1.539178595168,4.833992640574,-15.94726657795
    ));
#338 = CARTESIAN_POINT('',(0.978315815795,4.976635779453,-15.99265587926
    ));
#339 = CARTESIAN_POINT('',(0.394119231275,5.043769185824,-16.0139732484)
  );
#340 = CARTESIAN_POINT('',(-0.197914093817,5.030979115958,
    -16.00946611944));
#341 = CARTESIAN_POINT('',(-1.439674297939,4.834303621011,
    -15.94868904877));
#342 = CARTESIAN_POINT('',(-2.044963002538,4.63588166026,-15.88807284433
    ));
#343 = CARTESIAN_POINT('',(-2.590116107092,4.364273708377,
    -15.80777740747));
#344 = CARTESIAN_POINT('',(-3.072158553244,4.036280178979,
    -15.71725473096));
#345 = CARTESIAN_POINT('',(-3.49060393081,3.66595597134,-15.62455136912)
  );
#346 = CARTESIAN_POINT('',(-3.846652392483,3.26504691651,-15.53609289726
    ));
#347 = CARTESIAN_POINT('',(-4.142643910069,2.843306739938,
    -15.45639661141));
#348 = CARTESIAN_POINT('',(-4.656080541416,1.909368974612,
    -15.31020577777));
#349 = CARTESIAN_POINT('',(-4.858661840412,1.386783898739,
    -15.24647370671));
#350 = CARTESIAN_POINT('',(-4.991991308991,0.849650269652,-15.2018332154
    ));
#351 = CARTESIAN_POINT('',(-5.057846326869,0.304537962847,
    -15.17910106281));
#352 = CARTESIAN_POINT('',(-5.057069257292,-0.242825275679,
    -15.17951434841));
#353 = CARTESIAN_POINT('',(-4.989563706571,-0.786933759568,
    -15.20284459671));
#354 = CARTESIAN_POINT('',(-4.854242247852,-1.32194306952,
    -15.24737332955));
#355 = CARTESIAN_POINT('',(-4.467981091743,-2.297527386684,
    -15.36466360665));
#356 = CARTESIAN_POINT('',(-4.232679176048,-2.741889636428,
    -15.43344654287));
#357 = CARTESIAN_POINT('',(-3.941027911078,-3.169707994114,
    -15.51389928615));
#358 = CARTESIAN_POINT('',(-3.590079123424,-3.575115159064,
    -15.60290941214));
#359 = CARTESIAN_POINT('',(-3.176682529576,-3.949757513341,
    -15.69590864351));
#360 = CARTESIAN_POINT('',(-2.698199775208,-4.282274084266,
    -15.78653512755));
#361 = CARTESIAN_POINT('',(-2.153448444792,-4.557613306656,
    -15.86619834002));
#362 = CARTESIAN_POINT('',(-1.066668046459,-4.910729663555,
    -15.97163913111));
#363 = CARTESIAN_POINT('',(-0.553491029279,-5.016654851357,
    -16.00484824412));
#364 = CARTESIAN_POINT('',(-1.95824672933E-02,-5.060989075172,
    -16.0194643767));
#365 = CARTESIAN_POINT('',(0.51911129428,-5.038281802214,-16.01223395148
    ));
#366 = CARTESIAN_POINT('',(1.045981953533,-4.949214877096,
    -15.98338050948));
#367 = CARTESIAN_POINT('',(1.545147163757,-4.800381317703,
    -15.93698459244));
#368 = CARTESIAN_POINT('',(2.002971535253,-4.604622098246,
    -15.87943937528));
#369 = CARTESIAN_POINT('',(2.729184524443,-4.205383128956,
    -15.76884901352));
#370 = CARTESIAN_POINT('',(3.02474571459,-4.008024724264,-15.71624994785
    ));
#371 = CARTESIAN_POINT('',(3.295703548826,-3.793178635355,-15.6617748872
    ));
#372 = CARTESIAN_POINT('',(3.542600309222,-3.563885295553,
    -15.60708913194));
#373 = CARTESIAN_POINT('',(3.766129567323,-3.322624863938,-15.5535755867
    ));
#374 = CARTESIAN_POINT('',(3.967032336516,-3.071408517187,
    -15.50236129513));
#375 = CARTESIAN_POINT('',(4.146019360266,-2.811847617029,-15.4543627911
    ));
#376 = CARTESIAN_POINT('',(4.480132451699,-2.246893232827,
    -15.36105353179));
#377 = CARTESIAN_POINT('',(4.630009944742,-1.93952957707,-15.31670822474
    ));
#378 = CARTESIAN_POINT('',(4.753997274468,-1.625124798864,
    -15.27838376924));
#379 = CARTESIAN_POINT('',(4.852640183428,-1.305363410952,
    -15.24691567925));
#380 = CARTESIAN_POINT('',(4.926360002187,-0.981700255661,-15.2229098103
    ));
#381 = CARTESIAN_POINT('',(4.975438059948,-0.655441146939,
    -15.20676450576));
#382 = CARTESIAN_POINT('',(5.,-0.327809650204,-15.19868415357));
#383 = CARTESIAN_POINT('',(5.,-8.881784197001E-16,-15.19868415357));
#384 = PCURVE('',#50,#385);
#385 = DEFINITIONAL_REPRESENTATION('',(#386),#445);
#386 = B_SPLINE_CURVE_WITH_KNOTS('',8,(#387,#388,#389,#390,#391,#392,
    #393,#394,#395,#396,#397,#398,#399,#400,#401,#402,#403,#404,#405,
    #406,#407,#408,#409,#410,#411,#412,#413,#414,#415,#416,#417,#418,
    #419,#420,#421,#422,#423,#424,#425,#426,#427,#428,#429,#430,#431,
    #432,#433,#434,#435,#436,#437,#438,#439,#440,#441,#442,#443,#444),
  .UNSPECIFIED.,.T.,.F.,(9,7,7,7,7,7,7,7,9),(0.,0.150946729333,
    0.27306251785,0.410486977687,0.568423990968,0.707550608802,
    0.816959755982,0.903348941651,1.),.UNSPECIFIED.);
#387 = CARTESIAN_POINT('',(5.030212684313,150.));
#388 = CARTESIAN_POINT('',(5.030212684313,149.49310352477));
#389 = CARTESIAN_POINT('',(5.026348510667,148.98777495646));
#390 = CARTESIAN_POINT('',(5.018662134989,148.48768310802));
#391 = CARTESIAN_POINT('',(5.007124701198,147.99668960918));
#392 = CARTESIAN_POINT('',(4.991661498029,147.51963808375));
#393 = CARTESIAN_POINT('',(4.972164032194,147.06290342727));
#394 = CARTESIAN_POINT('',(4.948502126466,146.63523713772));
#395 = CARTESIAN_POINT('',(4.89793488222,145.937338826));
#396 = CARTESIAN_POINT('',(4.871481329627,145.6384096553));
#397 = CARTESIAN_POINT('',(4.841511768777,145.3753989636));
#398 = CARTESIAN_POINT('',(4.808596627354,145.16600735942));
#399 = CARTESIAN_POINT('',(4.773493253053,145.02336422054));
#400 = CARTESIAN_POINT('',(4.737015160434,144.95623081417));
#401 = CARTESIAN_POINT('',(4.700043569035,144.96902088404));
#402 = CARTESIAN_POINT('',(4.622340652803,145.16569637898));
#403 = CARTESIAN_POINT('',(4.584370152328,145.36411833973));
#404 = CARTESIAN_POINT('',(4.549987255188,145.63572629162));
#405 = CARTESIAN_POINT('',(4.519369781015,145.96371982102));
#406 = CARTESIAN_POINT('',(4.492602043137,146.33404402866));
#407 = CARTESIAN_POINT('',(4.469679851824,146.73495308349));
#408 = CARTESIAN_POINT('',(4.450523539451,147.15669326006));
#409 = CARTESIAN_POINT('',(4.417158317671,148.09063102538));
#410 = CARTESIAN_POINT('',(4.403890164473,148.61321610126));
#411 = CARTESIAN_POINT('',(4.395103017378,149.15034973034));
#412 = CARTESIAN_POINT('',(4.390747836702,149.69546203715));
#413 = CARTESIAN_POINT('',(4.390802635872,150.24282527567));
#414 = CARTESIAN_POINT('',(4.395266967379,150.78693375956));
#415 = CARTESIAN_POINT('',(4.404168333544,151.32194306952));
#416 = CARTESIAN_POINT('',(4.429398112717,152.29752738668));
#417 = CARTESIAN_POINT('',(4.444719082063,152.74188963642));
#418 = CARTESIAN_POINT('',(4.463624510121,153.16970799411));
#419 = CARTESIAN_POINT('',(4.48624241335,153.57511515906));
#420 = CARTESIAN_POINT('',(4.512703125692,153.94975751334));
#421 = CARTESIAN_POINT('',(4.543100568499,154.28227408426));
#422 = CARTESIAN_POINT('',(4.577469194173,154.55761330665));
#423 = CARTESIAN_POINT('',(4.645711907687,154.91072966355));
#424 = CARTESIAN_POINT('',(4.677835974276,155.01665485135));
#425 = CARTESIAN_POINT('',(4.711179022338,155.06098907516));
#426 = CARTESIAN_POINT('',(4.744793809292,155.03828180221));
#427 = CARTESIAN_POINT('',(4.777722844435,154.94921487709));
#428 = CARTESIAN_POINT('',(4.809027544444,154.8003813177));
#429 = CARTESIAN_POINT('',(4.837856874394,154.60462209824));
#430 = CARTESIAN_POINT('',(4.883768454402,154.20538312895));
#431 = CARTESIAN_POINT('',(4.902525406961,154.00802472426));
#432 = CARTESIAN_POINT('',(4.91979250506,153.79317863535));
#433 = CARTESIAN_POINT('',(4.935592333775,153.56388529555));
#434 = CARTESIAN_POINT('',(4.949954385422,153.32262486393));
#435 = CARTESIAN_POINT('',(4.962910651088,153.07140851718));
#436 = CARTESIAN_POINT('',(4.974491979895,152.81184761702));
#437 = CARTESIAN_POINT('',(4.996173100691,152.24689323282));
#438 = CARTESIAN_POINT('',(5.005940723216,151.93952957707));
#439 = CARTESIAN_POINT('',(5.014050894786,151.62512479886));
#440 = CARTESIAN_POINT('',(5.020521932857,151.30536341095));
#441 = CARTESIAN_POINT('',(5.025367536412,150.98170025566));
#442 = CARTESIAN_POINT('',(5.028596621856,150.65544114693));
#443 = CARTESIAN_POINT('',(5.030212684313,150.3278096502));
#444 = CARTESIAN_POINT('',(5.030212684313,150.));
#445 = ( GEOMETRIC_REPRESENTATION_CONTEXT(2) 
PARAMETRIC_REPRESENTATION_CONTEXT() REPRESENTATION_CONTEXT('2D SPACE',''
  ) );
#446 = PCURVE('',#447,#452);
#447 = CYLINDRICAL_SURFACE('',#448,5.);
#448 = AXIS2_PLACEMENT_3D('',#449,#450,#451);
#449 = CARTESIAN_POINT('',(0.,0.,-18.));
#450 = DIRECTION('',(0.,0.,1.));
#451 = DIRECTION('',(1.,0.,-0.));
#452 = DEFINITIONAL_REPRESENTATION('',(#453),#512);
#453 = B_SPLINE_CURVE_WITH_KNOTS('',8,(#454,#455,#456,#457,#458,#459,
    #460,#461,#462,#463,#464,#465,#466,#467,#468,#469,#470,#471,#472,
    #473,#474,#475,#476,#477,#478,#479,#480,#481,#482,#483,#484,#485,
    #486,#487,#488,#489,#490,#491,#492,#493,#494,#495,#496,#497,#498,
    #499,#500,#501,#502,#503,#504,#505,#506,#507,#508,#509,#510,#511),
  .UNSPECIFIED.,.F.,.F.,(9,7,7,7,7,7,7,7,9),(0.,0.150946729333,
    0.27306251785,0.410486977687,0.568423990968,0.707550608802,
    0.816959755982,0.903348941651,1.),.UNSPECIFIED.);
#454 = CARTESIAN_POINT('',(0.,2.801315846429));
#455 = CARTESIAN_POINT('',(0.101379295044,2.801315846429));
#456 = CARTESIAN_POINT('',(0.202444654841,2.781995314751));
#457 = CARTESIAN_POINT('',(0.304052051715,2.743562282772));
#458 = CARTESIAN_POINT('',(0.40697107637,2.687147032781));
#459 = CARTESIAN_POINT('',(0.511971684471,2.614847864089));
#460 = CARTESIAN_POINT('',(0.619862457267,2.530043270019));
#461 = CARTESIAN_POINT('',(0.731555114321,2.437823534074));
#462 = CARTESIAN_POINT('',(0.942619923021,2.270619940989));
#463 = CARTESIAN_POINT('',(1.044574369232,2.192299716313));
#464 = CARTESIAN_POINT('',(1.151736096754,2.116994102139));
#465 = CARTESIAN_POINT('',(1.262666262133,2.052733422041));
#466 = CARTESIAN_POINT('',(1.376395690681,2.007344120737));
#467 = CARTESIAN_POINT('',(1.492218532792,1.986026751597));
#468 = CARTESIAN_POINT('',(1.609567742728,1.990533880558));
#469 = CARTESIAN_POINT('',(1.861015522981,2.051310951221));
#470 = CARTESIAN_POINT('',(1.986791118571,2.111927155666));
#471 = CARTESIAN_POINT('',(2.106571608331,2.192222592526));
#472 = CARTESIAN_POINT('',(2.221179850802,2.282745269035));
#473 = CARTESIAN_POINT('',(2.331274655776,2.375448630872));
#474 = CARTESIAN_POINT('',(2.437328834041,2.463907102732));
#475 = CARTESIAN_POINT('',(2.539762875925,2.54360338859));
#476 = CARTESIAN_POINT('',(2.752916053139,2.689794222223));
#477 = CARTESIAN_POINT('',(2.864024050431,2.753526293288));
#478 = CARTESIAN_POINT('',(2.973264504888,2.798166784592));
#479 = CARTESIAN_POINT('',(3.081441245534,2.820898937181));
#480 = CARTESIAN_POINT('',(3.189296013536,2.820485651584));
#481 = CARTESIAN_POINT('',(3.29756209834,2.797155403288));
#482 = CARTESIAN_POINT('',(3.407012937142,2.752626670445));
#483 = CARTESIAN_POINT('',(3.616866451825,2.63533639335));
#484 = CARTESIAN_POINT('',(3.716822297402,2.566553457124));
#485 = CARTESIAN_POINT('',(3.819295455888,2.486100713841));
#486 = CARTESIAN_POINT('',(3.925072125817,2.397090587851));
#487 = CARTESIAN_POINT('',(4.034907824255,2.304091356484));
#488 = CARTESIAN_POINT('',(4.149660478347,2.213464872445));
#489 = CARTESIAN_POINT('',(4.27029547295,2.133801659973));
#490 = CARTESIAN_POINT('',(4.498837179928,2.028360868883));
#491 = CARTESIAN_POINT('',(4.602996059757,1.995151755879));
#492 = CARTESIAN_POINT('',(4.708841681325,1.980535623297));
#493 = CARTESIAN_POINT('',(4.815023890633,1.987766048517));
#494 = CARTESIAN_POINT('',(4.920294164968,2.016619490513));
#495 = CARTESIAN_POINT('',(5.023327869886,2.06301540756));
#496 = CARTESIAN_POINT('',(5.122428549479,2.120560624711));
#497 = CARTESIAN_POINT('',(5.288172576251,2.231150986475));
#498 = CARTESIAN_POINT('',(5.358988679106,2.283750052148));
#499 = CARTESIAN_POINT('',(5.427773495719,2.338225112797));
#500 = CARTESIAN_POINT('',(5.494767302831,2.392910868056));
#501 = CARTESIAN_POINT('',(5.560190692164,2.4464244133));
#502 = CARTESIAN_POINT('',(5.624253258629,2.497638704866));
#503 = CARTESIAN_POINT('',(5.687158585543,2.545637208897));
#504 = CARTESIAN_POINT('',(5.818430062125,2.638946468206));
#505 = CARTESIAN_POINT('',(5.886601197151,2.683291775255));
#506 = CARTESIAN_POINT('',(5.953855355567,2.721616230759));
#507 = CARTESIAN_POINT('',(6.020396905719,2.753084320749));
#508 = CARTESIAN_POINT('',(6.086416114294,2.777090189691));
#509 = CARTESIAN_POINT('',(6.152096894376,2.793235494234));
#510 = CARTESIAN_POINT('',(6.217623377139,2.801315846429));
#511 = CARTESIAN_POINT('',(6.28318530718,2.801315846429));
#512 = ( GEOMETRIC_REPRESENTATION_CONTEXT(2) 
PARAMETRIC_REPRESENTATION_CONTEXT() REPRESENTATION_CONTEXT('2D SPACE',''
  ) );
#513 = ADVANCED_FACE('',(#514,#517),#112,.F.);
#514 = FACE_BOUND('',#515,.F.);
#515 = EDGE_LOOP('',(#516));
#516 = ORIENTED_EDGE('',*,*,#97,.T.);
#517 = FACE_BOUND('',#518,.F.);
#518 = EDGE_LOOP('',(#519));
#519 = ORIENTED_EDGE('',*,*,#520,.F.);
#520 = EDGE_CURVE('',#521,#521,#523,.T.);
#521 = VERTEX_POINT('',#522);
#522 = CARTESIAN_POINT('',(13.,150.,-3.649077241654E-14));
#523 = SURFACE_CURVE('',#524,(#529,#536),.PCURVE_S1.);
#524 = CIRCLE('',#525,13.);
#525 = AXIS2_PLACEMENT_3D('',#526,#527,#528);
#526 = CARTESIAN_POINT('',(0.,150.,-3.330669073875E-14));
#527 = DIRECTION('',(0.,-1.,2.22044604925E-16));
#528 = DIRECTION('',(1.,0.,0.));
#529 = PCURVE('',#112,#530);
#530 = DEFINITIONAL_REPRESENTATION('',(#531),#535);
#531 = CIRCLE('',#532,13.);
#532 = AXIS2_PLACEMENT_2D('',#533,#534);
#533 = CARTESIAN_POINT('',(0.,0.));
#534 = DIRECTION('',(1.,0.));
#535 = ( GEOMETRIC_REPRESENTATION_CONTEXT(2) 
PARAMETRIC_REPRESENTATION_CONTEXT() REPRESENTATION_CONTEXT('2D SPACE',''
  ) );
#536 = PCURVE('',#537,#542);
#537 = CYLINDRICAL_SURFACE('',#538,13.);
#538 = AXIS2_PLACEMENT_3D('',#539,#540,#541);
#539 = CARTESIAN_POINT('',(0.,151.,-3.352873534368E-14));
#540 = DIRECTION('',(0.,-1.,2.22044604925E-16));
#541 = DIRECTION('',(1.,0.,0.));
#542 = DEFINITIONAL_REPRESENTATION('',(#543),#547);
#543 = LINE('',#544,#545);
#544 = CARTESIAN_POINT('',(0.,1.));
#545 = VECTOR('',#546,1.);
#546 = DIRECTION('',(1.,0.));
#547 = ( GEOMETRIC_REPRESENTATION_CONTEXT(2) 
PARAMETRIC_REPRESENTATION_CONTEXT() REPRESENTATION_CONTEXT('2D SPACE',''
  ) );
#548 = ADVANCED_FACE('',(#549,#552),#84,.T.);
#549 = FACE_BOUND('',#550,.T.);
#550 = EDGE_LOOP('',(#551));
#551 = ORIENTED_EDGE('',*,*,#69,.T.);
#552 = FACE_BOUND('',#553,.T.);
#553 = EDGE_LOOP('',(#554));
#554 = ORIENTED_EDGE('',*,*,#555,.F.);
#555 = EDGE_CURVE('',#556,#556,#558,.T.);
#556 = VERTEX_POINT('',#557);
#557 = CARTESIAN_POINT('',(13.,-150.,3.012260906097E-14));
#558 = SURFACE_CURVE('',#559,(#564,#571),.PCURVE_S1.);
#559 = CIRCLE('',#560,13.);
#560 = AXIS2_PLACEMENT_3D('',#561,#562,#563);
#561 = CARTESIAN_POINT('',(0.,-150.,3.330669073875E-14));
#562 = DIRECTION('',(0.,-1.,2.22044604925E-16));
#563 = DIRECTION('',(1.,0.,0.));
#564 = PCURVE('',#84,#565);
#565 = DEFINITIONAL_REPRESENTATION('',(#566),#570);
#566 = CIRCLE('',#567,13.);
#567 = AXIS2_PLACEMENT_2D('',#568,#569);
#568 = CARTESIAN_POINT('',(0.,0.));
#569 = DIRECTION('',(1.,0.));
#570 = ( GEOMETRIC_REPRESENTATION_CONTEXT(2) 
PARAMETRIC_REPRESENTATION_CONTEXT() REPRESENTATION_CONTEXT('2D SPACE',''
  ) );
#571 = PCURVE('',#537,#572);
#572 = DEFINITIONAL_REPRESENTATION('',(#573),#577);
#573 = LINE('',#574,#575);
#574 = CARTESIAN_POINT('',(0.,301.));
#575 = VECTOR('',#576,1.);
#576 = DIRECTION('',(1.,0.));
#577 = ( GEOMETRIC_REPRESENTATION_CONTEXT(2) 
PARAMETRIC_REPRESENTATION_CONTEXT() REPRESENTATION_CONTEXT('2D SPACE',''
  ) );
#578 = ADVANCED_FACE('',(#579),#252,.F.);
#579 = FACE_BOUND('',#580,.F.);
#580 = EDGE_LOOP('',(#581,#582,#605,#947));
#581 = ORIENTED_EDGE('',*,*,#126,.F.);
#582 = ORIENTED_EDGE('',*,*,#583,.F.);
#583 = EDGE_CURVE('',#584,#127,#586,.T.);
#584 = VERTEX_POINT('',#585);
#585 = CARTESIAN_POINT('',(5.,-1.224646799147E-15,12.));
#586 = SEAM_CURVE('',#587,(#591,#598),.PCURVE_S1.);
#587 = LINE('',#588,#589);
#588 = CARTESIAN_POINT('',(5.,-1.224646799147E-15,-18.));
#589 = VECTOR('',#590,1.);
#590 = DIRECTION('',(0.,0.,1.));
#591 = PCURVE('',#252,#592);
#592 = DEFINITIONAL_REPRESENTATION('',(#593),#597);
#593 = LINE('',#594,#595);
#594 = CARTESIAN_POINT('',(6.28318530718,-0.));
#595 = VECTOR('',#596,1.);
#596 = DIRECTION('',(0.,1.));
#597 = ( GEOMETRIC_REPRESENTATION_CONTEXT(2) 
PARAMETRIC_REPRESENTATION_CONTEXT() REPRESENTATION_CONTEXT('2D SPACE',''
  ) );
#598 = PCURVE('',#252,#599);
#599 = DEFINITIONAL_REPRESENTATION('',(#600),#604);
#600 = LINE('',#601,#602);
#601 = CARTESIAN_POINT('',(0.,-0.));
#602 = VECTOR('',#603,1.);
#603 = DIRECTION('',(0.,1.));
#604 = ( GEOMETRIC_REPRESENTATION_CONTEXT(2) 
PARAMETRIC_REPRESENTATION_CONTEXT() REPRESENTATION_CONTEXT('2D SPACE',''
  ) );
#605 = ORIENTED_EDGE('',*,*,#606,.T.);
#606 = EDGE_CURVE('',#584,#584,#607,.T.);
#607 = SURFACE_CURVE('',#608,(#719,#833),.PCURVE_S1.);
#608 = B_SPLINE_CURVE_WITH_KNOTS('',7,(#609,#610,#611,#612,#613,#614,
    #615,#616,#617,#618,#619,#620,#621,#622,#623,#624,#625,#626,#627,
    #628,#629,#630,#631,#632,#633,#634,#635,#636,#637,#638,#639,#640,
    #641,#642,#643,#644,#645,#646,#647,#648,#649,#650,#651,#652,#653,
    #654,#655,#656,#657,#658,#659,#660,#661,#662,#663,#664,#665,#666,
    #667,#668,#669,#670,#671,#672,#673,#674,#675,#676,#677,#678,#679,
    #680,#681,#682,#683,#684,#685,#686,#687,#688,#689,#690,#691,#692,
    #693,#694,#695,#696,#697,#698,#699,#700,#701,#702,#703,#704,#705,
    #706,#707,#708,#709,#710,#711,#712,#713,#714,#715,#716,#717,#718),
  .UNSPECIFIED.,.T.,.F.,(8,6,6,6,6,6,6,6,6,6,6,6,6,6,6,6,6,6,8),(0.,
    0.12909468425,0.186231477947,0.22249634857,0.276042134966,
    0.313831402642,0.346209470547,0.393493075546,0.427411502062,
    0.499790551172,0.560943530292,0.608077391535,0.654940163462,
    0.686492960201,0.722754999555,0.776296605519,0.814082922909,
    0.846458462988,1.),.UNSPECIFIED.);
#609 = CARTESIAN_POINT('',(5.,-8.881784197001E-16,12.));
#610 = CARTESIAN_POINT('',(5.,0.507928698685,12.));
#611 = CARTESIAN_POINT('',(4.93980190022,1.014296894165,12.025082636982)
  );
#612 = CARTESIAN_POINT('',(4.820072140182,1.514625189029,12.074969420168
    ));
#613 = CARTESIAN_POINT('',(4.640089764265,2.00429391301,12.147731589645)
  );
#614 = CARTESIAN_POINT('',(4.398160866875,2.477628233915,12.23973366192)
  );
#615 = CARTESIAN_POINT('',(4.091806106282,2.927296020057,12.345402445664
    ));
#616 = CARTESIAN_POINT('',(3.553162815356,3.526491197198,12.506189583151
    ));
#617 = CARTESIAN_POINT('',(3.374465311995,3.703949382764,12.556745837472
    ));
#618 = CARTESIAN_POINT('',(3.181990777579,3.874089323774,12.607859427853
    ));
#619 = CARTESIAN_POINT('',(2.975406670356,4.035789620349,12.658756187905
    ));
#620 = CARTESIAN_POINT('',(2.754423968891,4.187720967916,12.708537613303
    ));
#621 = CARTESIAN_POINT('',(2.518839024342,4.328315476955,12.756176818512
    ));
#622 = CARTESIAN_POINT('',(2.109738832297,4.536603638905,12.828679776716
    ));
#623 = CARTESIAN_POINT('',(1.944876482488,4.612222378722,12.855525816129
    ));
#624 = CARTESIAN_POINT('',(1.774288064626,4.681937207648,12.880713082438
    ));
#625 = CARTESIAN_POINT('',(1.598309488797,4.745141244744,12.903892731601
    ));
#626 = CARTESIAN_POINT('',(1.417316483932,4.801268857737,12.924730605368
    ));
#627 = CARTESIAN_POINT('',(1.231724304643,4.84979275486,12.942916521916)
  );
#628 = CARTESIAN_POINT('',(0.761837266437,4.949914279725,12.980700889336
    ));
#629 = CARTESIAN_POINT('',(0.472701638073,4.991947977514,12.996838871622
    ));
#630 = CARTESIAN_POINT('',(0.17795628526,5.014345766056,13.005546844031)
  );
#631 = CARTESIAN_POINT('',(-0.118848039143,5.016113053021,
    13.006234387997));
#632 = CARTESIAN_POINT('',(-0.414098354145,4.997196815093,
    12.998869826611));
#633 = CARTESIAN_POINT('',(-0.704232464237,4.958485079084,
    12.983983404561));
#634 = CARTESIAN_POINT('',(-1.184601789087,4.861873896144,
    12.947449497331));
#635 = CARTESIAN_POINT('',(-1.378997415935,4.812995232373,
    12.929089193173));
#636 = CARTESIAN_POINT('',(-1.568503085375,4.755755348494,
    12.907789426669));
#637 = CARTESIAN_POINT('',(-1.752629094054,4.690744882688,
    12.883897708747));
#638 = CARTESIAN_POINT('',(-1.93093247152,4.618603537832,12.857792261443
    ));
#639 = CARTESIAN_POINT('',(-2.103017427153,4.540023720968,
    12.829870400171));
#640 = CARTESIAN_POINT('',(-2.410352914799,4.383551544351,
    12.775403813338));
#641 = CARTESIAN_POINT('',(-2.547501567574,4.307094867972,
    12.749207423718));
#642 = CARTESIAN_POINT('',(-2.679977297653,4.226720375777,
    12.722157047225));
#643 = CARTESIAN_POINT('',(-2.80778768418,4.142742247524,12.694451692518
    ));
#644 = CARTESIAN_POINT('',(-2.930952023461,4.055452956365,
    12.666279031536));
#645 = CARTESIAN_POINT('',(-3.049501009195,3.965123604624,
    12.637814354226));
#646 = CARTESIAN_POINT('',(-3.329921426521,3.736016579842,
    12.567460802667));
#647 = CARTESIAN_POINT('',(-3.486669481719,3.594032045133,
    12.525410120105));
#648 = CARTESIAN_POINT('',(-3.633920029866,3.446753697916,
    12.483551552764));
#649 = CARTESIAN_POINT('',(-3.771884419309,3.294776856188,
    12.442310650443));
#650 = CARTESIAN_POINT('',(-3.900774074112,3.138602054183,
    12.402061264824));
#651 = CARTESIAN_POINT('',(-4.020788672989,2.978647983083,
    12.363132378724));
#652 = CARTESIAN_POINT('',(-4.211955512875,2.698062856652,
    12.299045636334));
#653 = CARTESIAN_POINT('',(-4.287327353919,2.579101252006,
    12.273106654976));
#654 = CARTESIAN_POINT('',(-4.35827446583,2.458524741419,12.248109081706
    ));
#655 = CARTESIAN_POINT('',(-4.424846300073,2.336466971101,
    12.224154464903));
#656 = CARTESIAN_POINT('',(-4.487087253057,2.213050166217,
    12.201335154188));
#657 = CARTESIAN_POINT('',(-4.545036774069,2.088385187276,
    12.179734643723));
#658 = CARTESIAN_POINT('',(-4.713305145113,1.694096019614,
    12.116095077561));
#659 = CARTESIAN_POINT('',(-4.808530107865,1.42031140415,12.078640847729
    ));
#660 = CARTESIAN_POINT('',(-4.88461316723,1.142423040413,12.047840657964
    ));
#661 = CARTESIAN_POINT('',(-4.941720178208,0.861514197481,
    12.024278618417));
#662 = CARTESIAN_POINT('',(-4.979964037886,0.578583866619,
    12.008348083298));
#663 = CARTESIAN_POINT('',(-4.999394678276,0.294584514682,
    12.000252216743));
#664 = CARTESIAN_POINT('',(-5.000491250931,-0.22959679026,
    11.999795312644));
#665 = CARTESIAN_POINT('',(-4.987546896677,-0.469630337225,
    12.00518864829));
#666 = CARTESIAN_POINT('',(-4.961165362758,-0.709057121468,
    12.016183830615));
#667 = CARTESIAN_POINT('',(-4.921323755855,-0.94728997874,
    12.032681291903));
#668 = CARTESIAN_POINT('',(-4.867970545441,-1.183722847101,
    12.05448279622));
#669 = CARTESIAN_POINT('',(-4.80102918624,-1.417715351556,
    12.081291603927));
#670 = CARTESIAN_POINT('',(-4.658257869925,-1.82651506862,
    12.136930500869));
#671 = CARTESIAN_POINT('',(-4.587983846857,-2.002592539736,
    12.163888319122));
#672 = CARTESIAN_POINT('',(-4.50951293832,-2.176557015779,
    12.193413756284));
#673 = CARTESIAN_POINT('',(-4.422755142677,-2.348129637544,
    12.225305609896));
#674 = CARTESIAN_POINT('',(-4.327600694759,-2.516997454208,
    12.259330962911));
#675 = CARTESIAN_POINT('',(-4.223923570811,-2.682805404642,
    12.29522233692));
#676 = CARTESIAN_POINT('',(-3.999892528796,-3.006557481404,
    12.369911946592));
#677 = CARTESIAN_POINT('',(-3.879632241622,-3.164549484294,
    12.408694022341));
#678 = CARTESIAN_POINT('',(-3.750629893262,-3.318778035927,
    12.448734137268));
#679 = CARTESIAN_POINT('',(-3.612689134374,-3.468828952823,
    12.489708045509));
#680 = CARTESIAN_POINT('',(-3.465603045643,-3.614207761976,
    12.53124766415));
#681 = CARTESIAN_POINT('',(-3.309165678507,-3.75432732334,12.57293454668
    ));
#682 = CARTESIAN_POINT('',(-3.031427532367,-3.978831118086,
    12.64214032462));
#683 = CARTESIAN_POINT('',(-2.915320346997,-4.066488439244,
    12.669844641573));
#684 = CARTESIAN_POINT('',(-2.794824885428,-4.15123307483,
    12.697255026553));
#685 = CARTESIAN_POINT('',(-2.669914172602,-4.232811838047,
    12.724208130456));
#686 = CARTESIAN_POINT('',(-2.540571691347,-4.310952395686,
    12.750529486497));
#687 = CARTESIAN_POINT('',(-2.406791660992,-4.385362967564,
    12.776034460869));
#688 = CARTESIAN_POINT('',(-2.109738832321,-4.536603638894,
    12.828679776712));
#689 = CARTESIAN_POINT('',(-1.944876482491,-4.612222378723,
    12.85552581613));
#690 = CARTESIAN_POINT('',(-1.774288064604,-4.681937207657,
    12.880713082441));
#691 = CARTESIAN_POINT('',(-1.598309488774,-4.745141244749,
    12.903892731603));
#692 = CARTESIAN_POINT('',(-1.417316483935,-4.801268857734,
    12.924730605367));
#693 = CARTESIAN_POINT('',(-1.231724304673,-4.849792754854,
    12.942916521914));
#694 = CARTESIAN_POINT('',(-0.761837266437,-4.949914279725,
    12.980700889336));
#695 = CARTESIAN_POINT('',(-0.472701638073,-4.991947977514,
    12.996838871622));
#696 = CARTESIAN_POINT('',(-0.177956285259,-5.014345766056,
    13.005546844031));
#697 = CARTESIAN_POINT('',(0.118848039143,-5.016113053021,
    13.006234387997));
#698 = CARTESIAN_POINT('',(0.414098354145,-4.997196815093,
    12.998869826611));
#699 = CARTESIAN_POINT('',(0.704232464237,-4.958485079084,
    12.983983404561));
#700 = CARTESIAN_POINT('',(1.184601789093,-4.861873896143,
    12.947449497331));
#701 = CARTESIAN_POINT('',(1.378997415936,-4.812995232373,
    12.929089193173));
#702 = CARTESIAN_POINT('',(1.568503085371,-4.755755348495,12.90778942667
    ));
#703 = CARTESIAN_POINT('',(1.75262909405,-4.69074488269,12.883897708748)
  );
#704 = CARTESIAN_POINT('',(1.93093247152,-4.618603537833,12.857792261444
    ));
#705 = CARTESIAN_POINT('',(2.103017427158,-4.540023720965,12.82987040017
    ));
#706 = CARTESIAN_POINT('',(2.410352914787,-4.383551544358,12.77540381334
    ));
#707 = CARTESIAN_POINT('',(2.547501567573,-4.307094867974,
    12.749207423718));
#708 = CARTESIAN_POINT('',(2.679977297662,-4.226720375772,
    12.722157047223));
#709 = CARTESIAN_POINT('',(2.807787684188,-4.142742247518,
    12.694451692516));
#710 = CARTESIAN_POINT('',(2.93095202346,-4.055452956365,12.666279031536
    ));
#711 = CARTESIAN_POINT('',(3.049501009186,-3.965123604632,
    12.637814354228));
#712 = CARTESIAN_POINT('',(3.704006658565,-3.430384217744,12.47360806216
    ));
#713 = CARTESIAN_POINT('',(4.144474456565,-2.923719700349,
    12.334364934362));
#714 = CARTESIAN_POINT('',(4.489454735711,-2.375772293544,
    12.208202749696));
#715 = CARTESIAN_POINT('',(4.744739200991,-1.800714096491,
    12.106359918253));
#716 = CARTESIAN_POINT('',(4.914305432188,-1.208469727338,
    12.035705636617));
#717 = CARTESIAN_POINT('',(5.,-0.606018995128,12.));
#718 = CARTESIAN_POINT('',(5.,-8.881784197001E-16,12.));
#719 = PCURVE('',#252,#720);
#720 = DEFINITIONAL_REPRESENTATION('',(#721),#832);
#721 = B_SPLINE_CURVE_WITH_KNOTS('',7,(#722,#723,#724,#725,#726,#727,
    #728,#729,#730,#731,#732,#733,#734,#735,#736,#737,#738,#739,#740,
    #741,#742,#743,#744,#745,#746,#747,#748,#749,#750,#751,#752,#753,
    #754,#755,#756,#757,#758,#759,#760,#761,#762,#763,#764,#765,#766,
    #767,#768,#769,#770,#771,#772,#773,#774,#775,#776,#777,#778,#779,
    #780,#781,#782,#783,#784,#785,#786,#787,#788,#789,#790,#791,#792,
    #793,#794,#795,#796,#797,#798,#799,#800,#801,#802,#803,#804,#805,
    #806,#807,#808,#809,#810,#811,#812,#813,#814,#815,#816,#817,#818,
    #819,#820,#821,#822,#823,#824,#825,#826,#827,#828,#829,#830,#831),
  .UNSPECIFIED.,.F.,.F.,(8,6,6,6,6,6,6,6,6,6,6,6,6,6,6,6,6,6,8),(0.,
    0.12909468425,0.186231477947,0.22249634857,0.276042134966,
    0.313831402642,0.346209470547,0.393493075546,0.427411502062,
    0.499790551172,0.560943530292,0.608077391535,0.654940163462,
    0.686492960201,0.722754999555,0.776296605519,0.814082922909,
    0.846458462988,1.),.UNSPECIFIED.);
#722 = CARTESIAN_POINT('',(0.,30.));
#723 = CARTESIAN_POINT('',(0.101585739737,30.));
#724 = CARTESIAN_POINT('',(0.202859266276,30.025082636982));
#725 = CARTESIAN_POINT('',(0.304637742002,30.074969420168));
#726 = CARTESIAN_POINT('',(0.407659761351,30.147731589645));
#727 = CARTESIAN_POINT('',(0.512684791574,30.23973366192));
#728 = CARTESIAN_POINT('',(0.620528687206,30.345402445664));
#729 = CARTESIAN_POINT('',(0.781671041063,30.506189583151));
#730 = CARTESIAN_POINT('',(0.831958615263,30.556745837472));
#731 = CARTESIAN_POINT('',(0.883196988121,30.607859427853));
#732 = CARTESIAN_POINT('',(0.935492096432,30.658756187905));
#733 = CARTESIAN_POINT('',(0.988953687414,30.708537613303));
#734 = CARTESIAN_POINT('',(1.043699846562,30.756176818512));
#735 = CARTESIAN_POINT('',(1.135514208302,30.828679776716));
#736 = CARTESIAN_POINT('',(1.171759366042,30.855525816129));
#737 = CARTESIAN_POINT('',(1.208563405039,30.880713082438));
#738 = CARTESIAN_POINT('',(1.24589639879,30.903892731601));
#739 = CARTESIAN_POINT('',(1.28373494295,30.924730605368));
#740 = CARTESIAN_POINT('',(1.322060899435,30.942916521916));
#741 = CARTESIAN_POINT('',(1.418147974198,30.980700889336));
#742 = CARTESIAN_POINT('',(1.476457360772,30.996838871622));
#743 = CARTESIAN_POINT('',(1.535352919582,31.005546844031));
#744 = CARTESIAN_POINT('',(1.594454499352,31.006234387997));
#745 = CARTESIAN_POINT('',(1.65340118673,30.998869826611));
#746 = CARTESIAN_POINT('',(1.711815416792,30.983983404561));
#747 = CARTESIAN_POINT('',(1.809813051238,30.947449497331));
#748 = CARTESIAN_POINT('',(1.84985647683,30.929089193173));
#749 = CARTESIAN_POINT('',(1.889379583252,30.907789426669));
#750 = CARTESIAN_POINT('',(1.928359965965,30.883897708747));
#751 = CARTESIAN_POINT('',(1.96676899999,30.857792261443));
#752 = CARTESIAN_POINT('',(2.004570144983,30.829870400171));
#753 = CARTESIAN_POINT('',(2.073545109723,30.775403813338));
#754 = CARTESIAN_POINT('',(2.104926940349,30.749207423718));
#755 = CARTESIAN_POINT('',(2.135884039924,30.722157047225));
#756 = CARTESIAN_POINT('',(2.1664353558,30.694451692518));
#757 = CARTESIAN_POINT('',(2.196598259542,30.666279031536));
#758 = CARTESIAN_POINT('',(2.226389321518,30.637814354226));
#759 = CARTESIAN_POINT('',(2.298811870287,30.567460802667));
#760 = CARTESIAN_POINT('',(2.341055716265,30.525410120105));
#761 = CARTESIAN_POINT('',(2.382627933457,30.483551552764));
#762 = CARTESIAN_POINT('',(2.423595965468,30.442310650443));
#763 = CARTESIAN_POINT('',(2.464024626915,30.402061264824));
#764 = CARTESIAN_POINT('',(2.503977340859,30.363132378724));
#765 = CARTESIAN_POINT('',(2.571881029668,30.299045636334));
#766 = CARTESIAN_POINT('',(2.600031171263,30.273106654976));
#767 = CARTESIAN_POINT('',(2.627987215385,30.248109081706));
#768 = CARTESIAN_POINT('',(2.655767416306,30.224154464903));
#769 = CARTESIAN_POINT('',(2.683389384418,30.201335154188));
#770 = CARTESIAN_POINT('',(2.71087060244,30.179734643723));
#771 = CARTESIAN_POINT('',(2.796609320049,30.116095077561));
#772 = CARTESIAN_POINT('',(2.854447322803,30.078640847729));
#773 = CARTESIAN_POINT('',(2.911862141896,30.047840657964));
#774 = CARTESIAN_POINT('',(2.968966081534,30.024278618417));
#775 = CARTESIAN_POINT('',(3.025867812211,30.008348083298));
#776 = CARTESIAN_POINT('',(3.082675624785,30.000252216743));
#777 = CARTESIAN_POINT('',(3.187512115173,29.999795312644));
#778 = CARTESIAN_POINT('',(3.23551328795,30.00518864829));
#779 = CARTESIAN_POINT('',(3.283568284554,30.016183830615));
#780 = CARTESIAN_POINT('',(3.331740050524,30.032681291903));
#781 = CARTESIAN_POINT('',(3.380091655259,30.05448279622));
#782 = CARTESIAN_POINT('',(3.428687552004,30.081291603927));
#783 = CARTESIAN_POINT('',(3.515290290398,30.136930500869));
#784 = CARTESIAN_POINT('',(3.553170602708,30.163888319122));
#785 = CARTESIAN_POINT('',(3.591280044296,30.193413756284));
#786 = CARTESIAN_POINT('',(3.629663124024,30.225305609896));
#787 = CARTESIAN_POINT('',(3.668365311427,30.259330962911));
#788 = CARTESIAN_POINT('',(3.707433758058,30.29522233692));
#789 = CARTESIAN_POINT('',(3.786175186797,30.369911946592));
#790 = CARTESIAN_POINT('',(3.825845349809,30.408694022341));
#791 = CARTESIAN_POINT('',(3.865990477954,30.448734137268));
#792 = CARTESIAN_POINT('',(3.90667267083,30.489708045509));
#793 = CARTESIAN_POINT('',(3.947955367261,30.53124766415));
#794 = CARTESIAN_POINT('',(3.989904554997,30.57293454668));
#795 = CARTESIAN_POINT('',(4.061330161519,30.64214032462));
#796 = CARTESIAN_POINT('',(4.090410360321,30.669844641573));
#797 = CARTESIAN_POINT('',(4.119845718059,30.697255026553));
#798 = CARTESIAN_POINT('',(4.149651446989,30.724208130456));
#799 = CARTESIAN_POINT('',(4.179843508538,30.750529486497));
#800 = CARTESIAN_POINT('',(4.210439291453,30.776034460869));
#801 = CARTESIAN_POINT('',(4.277106861886,30.828679776712));
#802 = CARTESIAN_POINT('',(4.313352019632,30.85552581613));
#803 = CARTESIAN_POINT('',(4.350156058633,30.880713082441));
#804 = CARTESIAN_POINT('',(4.387489052385,30.903892731603));
#805 = CARTESIAN_POINT('',(4.425327596539,30.924730605367));
#806 = CARTESIAN_POINT('',(4.463653553018,30.942916521914));
#807 = CARTESIAN_POINT('',(4.559740627788,30.980700889336));
#808 = CARTESIAN_POINT('',(4.618050014361,30.996838871622));
#809 = CARTESIAN_POINT('',(4.676945573172,31.005546844031));
#810 = CARTESIAN_POINT('',(4.736047152942,31.006234387997));
#811 = CARTESIAN_POINT('',(4.79499384032,30.998869826611));
#812 = CARTESIAN_POINT('',(4.853408070382,30.983983404561));
#813 = CARTESIAN_POINT('',(4.951405704829,30.947449497331));
#814 = CARTESIAN_POINT('',(4.99144913042,30.929089193173));
#815 = CARTESIAN_POINT('',(5.030972236841,30.90778942667));
#816 = CARTESIAN_POINT('',(5.069952619554,30.883897708748));
#817 = CARTESIAN_POINT('',(5.10836165358,30.857792261444));
#818 = CARTESIAN_POINT('',(5.146162798574,30.82987040017));
#819 = CARTESIAN_POINT('',(5.21513776331,30.77540381334));
#820 = CARTESIAN_POINT('',(5.246519593938,30.749207423718));
#821 = CARTESIAN_POINT('',(5.277476693516,30.722157047223));
#822 = CARTESIAN_POINT('',(5.308028009392,30.694451692516));
#823 = CARTESIAN_POINT('',(5.338190913131,30.666279031536));
#824 = CARTESIAN_POINT('',(5.367981975105,30.637814354228));
#825 = CARTESIAN_POINT('',(5.537017339092,30.47360806216));
#826 = CARTESIAN_POINT('',(5.669351010657,30.334364934362));
#827 = CARTESIAN_POINT('',(5.796555401414,30.208202749696));
#828 = CARTESIAN_POINT('',(5.920132324883,30.106359918253));
#829 = CARTESIAN_POINT('',(6.041491889965,30.035705636617));
#830 = CARTESIAN_POINT('',(6.161981508154,30.));
#831 = CARTESIAN_POINT('',(6.28318530718,30.));
#832 = ( GEOMETRIC_REPRESENTATION_CONTEXT(2) 
PARAMETRIC_REPRESENTATION_CONTEXT() REPRESENTATION_CONTEXT('2D SPACE',''
  ) );
#833 = PCURVE('',#537,#834);
#834 = DEFINITIONAL_REPRESENTATION('',(#835),#946);
#835 = B_SPLINE_CURVE_WITH_KNOTS('',7,(#836,#837,#838,#839,#840,#841,
    #842,#843,#844,#845,#846,#847,#848,#849,#850,#851,#852,#853,#854,
    #855,#856,#857,#858,#859,#860,#861,#862,#863,#864,#865,#866,#867,
    #868,#869,#870,#871,#872,#873,#874,#875,#876,#877,#878,#879,#880,
    #881,#882,#883,#884,#885,#886,#887,#888,#889,#890,#891,#892,#893,
    #894,#895,#896,#897,#898,#899,#900,#901,#902,#903,#904,#905,#906,
    #907,#908,#909,#910,#911,#912,#913,#914,#915,#916,#917,#918,#919,
    #920,#921,#922,#923,#924,#925,#926,#927,#928,#929,#930,#931,#932,
    #933,#934,#935,#936,#937,#938,#939,#940,#941,#942,#943,#944,#945),
  .UNSPECIFIED.,.T.,.F.,(8,6,6,6,6,6,6,6,6,6,6,6,6,6,6,6,6,6,8),(0.,
    0.12909468425,0.186231477947,0.22249634857,0.276042134966,
    0.313831402642,0.346209470547,0.393493075546,0.427411502062,
    0.499790551172,0.560943530292,0.608077391535,0.654940163462,
    0.686492960201,0.722754999555,0.776296605519,0.814082922909,
    0.846458462988,1.),.UNSPECIFIED.);
#836 = CARTESIAN_POINT('',(1.176005207095,151.));
#837 = CARTESIAN_POINT('',(1.176005207095,150.49207130131));
#838 = CARTESIAN_POINT('',(1.181021711719,149.98570310583));
#839 = CARTESIAN_POINT('',(1.190999209849,149.48537481097));
#840 = CARTESIAN_POINT('',(1.205931640809,148.99570608699));
#841 = CARTESIAN_POINT('',(1.225832260451,148.52237176608));
#842 = CARTESIAN_POINT('',(1.250738415769,148.07270397994));
#843 = CARTESIAN_POINT('',(1.293979113947,147.4735088028));
#844 = CARTESIAN_POINT('',(1.308263129986,147.29605061723));
#845 = CARTESIAN_POINT('',(1.323578726641,147.12591067622));
#846 = CARTESIAN_POINT('',(1.3399398018,146.96421037965));
#847 = CARTESIAN_POINT('',(1.35735810194,146.81227903208));
#848 = CARTESIAN_POINT('',(1.37584144474,146.67168452304));
#849 = CARTESIAN_POINT('',(1.407801075904,146.46339636109));
#850 = CARTESIAN_POINT('',(1.420648586969,146.38777762127));
#851 = CARTESIAN_POINT('',(1.433910632185,146.31806279235));
#852 = CARTESIAN_POINT('',(1.447561246103,146.25485875525));
#853 = CARTESIAN_POINT('',(1.461572615609,146.19873114226));
#854 = CARTESIAN_POINT('',(1.475915120556,146.15020724514));
#855 = CARTESIAN_POINT('',(1.512176946792,146.05008572027));
#856 = CARTESIAN_POINT('',(1.534446123505,146.00805202248));
#857 = CARTESIAN_POINT('',(1.557115973574,145.98565423394));
#858 = CARTESIAN_POINT('',(1.579931999813,145.98388694697));
#859 = CARTESIAN_POINT('',(1.602637755014,146.0028031849));
#860 = CARTESIAN_POINT('',(1.624978368966,146.04151492091));
#861 = CARTESIAN_POINT('',(1.662036568407,146.13812610385));
#862 = CARTESIAN_POINT('',(1.677054107641,146.18700476762));
#863 = CARTESIAN_POINT('',(1.691719654216,146.2442446515));
#864 = CARTESIAN_POINT('',(1.705998352123,146.30925511731));
#865 = CARTESIAN_POINT('',(1.719857480896,146.38139646216));
#866 = CARTESIAN_POINT('',(1.73326649741,146.45997627903));
#867 = CARTESIAN_POINT('',(1.757276075263,146.61644845564));
#868 = CARTESIAN_POINT('',(1.768015743036,146.69290513202));
#869 = CARTESIAN_POINT('',(1.778415154751,146.77327962422));
#870 = CARTESIAN_POINT('',(1.788473822071,146.85725775247));
#871 = CARTESIAN_POINT('',(1.79819177255,146.94454704363));
#872 = CARTESIAN_POINT('',(1.807569627628,147.03487639537));
#873 = CARTESIAN_POINT('',(1.829808943615,147.26398342015));
#874 = CARTESIAN_POINT('',(1.842291184847,147.40596795486));
#875 = CARTESIAN_POINT('',(1.854064940531,147.55324630208));
#876 = CARTESIAN_POINT('',(1.865139980776,147.70522314381));
#877 = CARTESIAN_POINT('',(1.875525725952,147.86139794581));
#878 = CARTESIAN_POINT('',(1.885230663057,148.02135201691));
#879 = CARTESIAN_POINT('',(1.900740131672,148.30193714334));
#880 = CARTESIAN_POINT('',(1.906871504972,148.42089874799));
#881 = CARTESIAN_POINT('',(1.912657589762,148.54147525858));
#882 = CARTESIAN_POINT('',(1.918099744062,148.66353302889));
#883 = CARTESIAN_POINT('',(1.923199023629,148.78694983378));
#884 = CARTESIAN_POINT('',(1.927956229446,148.91161481272));
#885 = CARTESIAN_POINT('',(1.941794739959,149.30590398038));
#886 = CARTESIAN_POINT('',(1.94966535204,149.57968859585));
#887 = CARTESIAN_POINT('',(1.955978843459,149.85757695958));
#888 = CARTESIAN_POINT('',(1.960730878803,150.13848580251));
#889 = CARTESIAN_POINT('',(1.963917851995,150.42141613338));
#890 = CARTESIAN_POINT('',(1.965537003037,150.70541548531));
#891 = CARTESIAN_POINT('',(1.965628384056,151.22959679026));
#892 = CARTESIAN_POINT('',(1.964549714919,151.46963033722));
#893 = CARTESIAN_POINT('',(1.962351126482,151.70905712146));
#894 = CARTESIAN_POINT('',(1.959034046728,151.94728997874));
#895 = CARTESIAN_POINT('',(1.954600683524,152.1837228471));
#896 = CARTESIAN_POINT('',(1.949053975654,152.41771535155));
#897 = CARTESIAN_POINT('',(1.937267076996,152.82651506862));
#898 = CARTESIAN_POINT('',(1.931477373984,153.00259253973));
#899 = CARTESIAN_POINT('',(1.92502822291,153.17655701577));
#900 = CARTESIAN_POINT('',(1.917918343468,153.34812963754));
#901 = CARTESIAN_POINT('',(1.910145481002,153.5169974542));
#902 = CARTESIAN_POINT('',(1.901706500556,153.68280540464));
#903 = CARTESIAN_POINT('',(1.883540851593,154.0065574814));
#904 = CARTESIAN_POINT('',(1.873821411888,154.16454948429));
#905 = CARTESIAN_POINT('',(1.863432180003,154.31877803592));
#906 = CARTESIAN_POINT('',(1.852364745123,154.46882895282));
#907 = CARTESIAN_POINT('',(1.840609837043,154.61420776197));
#908 = CARTESIAN_POINT('',(1.828157895793,154.75432732334));
#909 = CARTESIAN_POINT('',(1.806140162553,154.97883111808));
#910 = CARTESIAN_POINT('',(1.796958565835,155.06648843924));
#911 = CARTESIAN_POINT('',(1.787453755532,155.15123307483));
#912 = CARTESIAN_POINT('',(1.777625249238,155.23281183804));
#913 = CARTESIAN_POINT('',(1.767473108648,155.31095239568));
#914 = CARTESIAN_POINT('',(1.756997870486,155.38536296756));
#915 = CARTESIAN_POINT('',(1.733791577688,155.53660363889));
#916 = CARTESIAN_POINT('',(1.720944066621,155.61222237872));
#917 = CARTESIAN_POINT('',(1.707682021403,155.68193720765));
#918 = CARTESIAN_POINT('',(1.694031407485,155.74514124474));
#919 = CARTESIAN_POINT('',(1.680020037981,155.80126885773));
#920 = CARTESIAN_POINT('',(1.665677533036,155.84979275485));
#921 = CARTESIAN_POINT('',(1.629415706798,155.94991427972));
#922 = CARTESIAN_POINT('',(1.607146530085,155.99194797751));
#923 = CARTESIAN_POINT('',(1.584476680015,156.01434576605));
#924 = CARTESIAN_POINT('',(1.561660653777,156.01611305302));
#925 = CARTESIAN_POINT('',(1.538954898576,155.99719681509));
#926 = CARTESIAN_POINT('',(1.516614284623,155.95848507908));
#927 = CARTESIAN_POINT('',(1.479556085182,155.86187389614));
#928 = CARTESIAN_POINT('',(1.464538545949,155.81299523237));
#929 = CARTESIAN_POINT('',(1.449872999374,155.75575534849));
#930 = CARTESIAN_POINT('',(1.435594301467,155.69074488269));
#931 = CARTESIAN_POINT('',(1.421735172693,155.61860353783));
#932 = CARTESIAN_POINT('',(1.408326156179,155.54002372096));
#933 = CARTESIAN_POINT('',(1.384316578328,155.38355154435));
#934 = CARTESIAN_POINT('',(1.373576910554,155.30709486797));
#935 = CARTESIAN_POINT('',(1.363177498838,155.22672037577));
#936 = CARTESIAN_POINT('',(1.353118831519,155.14274224751));
#937 = CARTESIAN_POINT('',(1.34340088104,155.05545295636));
#938 = CARTESIAN_POINT('',(1.334023025963,154.96512360463));
#939 = CARTESIAN_POINT('',(1.282116113868,154.43038421774));
#940 = CARTESIAN_POINT('',(1.246646003131,153.92371970034));
#941 = CARTESIAN_POINT('',(1.218416507904,153.37577229354));
#942 = CARTESIAN_POINT('',(1.197277055162,152.80071409649));
#943 = CARTESIAN_POINT('',(1.183146394694,152.20846972733));
#944 = CARTESIAN_POINT('',(1.176005207095,151.60601899512));
#945 = CARTESIAN_POINT('',(1.176005207095,151.));
#946 = ( GEOMETRIC_REPRESENTATION_CONTEXT(2) 
PARAMETRIC_REPRESENTATION_CONTEXT() REPRESENTATION_CONTEXT('2D SPACE',''
  ) );
#947 = ORIENTED_EDGE('',*,*,#583,.T.);
#948 = ADVANCED_FACE('',(#949),#447,.F.);
#949 = FACE_BOUND('',#950,.F.);
#950 = EDGE_LOOP('',(#951,#1295,#1316,#1317));
#951 = ORIENTED_EDGE('',*,*,#952,.F.);
#952 = EDGE_CURVE('',#953,#953,#955,.T.);
#953 = VERTEX_POINT('',#954);
#954 = CARTESIAN_POINT('',(5.,-1.224646799147E-15,-12.));
#955 = SURFACE_CURVE('',#956,(#1067,#1181),.PCURVE_S1.);
#956 = B_SPLINE_CURVE_WITH_KNOTS('',7,(#957,#958,#959,#960,#961,#962,
    #963,#964,#965,#966,#967,#968,#969,#970,#971,#972,#973,#974,#975,
    #976,#977,#978,#979,#980,#981,#982,#983,#984,#985,#986,#987,#988,
    #989,#990,#991,#992,#993,#994,#995,#996,#997,#998,#999,#1000,#1001,
    #1002,#1003,#1004,#1005,#1006,#1007,#1008,#1009,#1010,#1011,#1012,
    #1013,#1014,#1015,#1016,#1017,#1018,#1019,#1020,#1021,#1022,#1023,
    #1024,#1025,#1026,#1027,#1028,#1029,#1030,#1031,#1032,#1033,#1034,
    #1035,#1036,#1037,#1038,#1039,#1040,#1041,#1042,#1043,#1044,#1045,
    #1046,#1047,#1048,#1049,#1050,#1051,#1052,#1053,#1054,#1055,#1056,
    #1057,#1058,#1059,#1060,#1061,#1062,#1063,#1064,#1065,#1066),
  .UNSPECIFIED.,.T.,.F.,(8,6,6,6,6,6,6,6,6,6,6,6,6,6,6,6,6,6,8),(0.,
    0.129094684134,0.186231477781,0.222496348366,0.276042134698,
    0.31383140233,0.346209470194,0.393493075131,0.427411501603,
    0.499790550601,0.560943527795,0.60807738897,0.654940159012,
    0.686492955803,0.722754995213,0.776296601262,0.814082918733,
    0.846458458898,1.),.UNSPECIFIED.);
#957 = CARTESIAN_POINT('',(5.,-8.881784197001E-16,-12.));
#958 = CARTESIAN_POINT('',(5.,0.507928698686,-12.));
#959 = CARTESIAN_POINT('',(4.93980190022,1.014296894163,-12.02508263698)
  );
#960 = CARTESIAN_POINT('',(4.820072140183,1.514625189031,-12.07496942016
    ));
#961 = CARTESIAN_POINT('',(4.640089764264,2.004293913009,-12.14773158964
    ));
#962 = CARTESIAN_POINT('',(4.398160866875,2.477628233915,-12.23973366192
    ));
#963 = CARTESIAN_POINT('',(4.091806106281,2.927296020057,-12.34540244566
    ));
#964 = CARTESIAN_POINT('',(3.553162815356,3.526491197198,-12.50618958315
    ));
#965 = CARTESIAN_POINT('',(3.374465311995,3.703949382764,-12.55674583747
    ));
#966 = CARTESIAN_POINT('',(3.181990777579,3.874089323774,-12.60785942785
    ));
#967 = CARTESIAN_POINT('',(2.975406670356,4.035789620348,-12.6587561879)
  );
#968 = CARTESIAN_POINT('',(2.75442396889,4.187720967916,-12.7085376133)
  );
#969 = CARTESIAN_POINT('',(2.518839024342,4.328315476955,-12.75617681851
    ));
#970 = CARTESIAN_POINT('',(2.109738832321,4.536603638894,-12.82867977671
    ));
#971 = CARTESIAN_POINT('',(1.944876482491,4.612222378723,-12.85552581613
    ));
#972 = CARTESIAN_POINT('',(1.774288064604,4.681937207657,-12.88071308244
    ));
#973 = CARTESIAN_POINT('',(1.598309488775,4.745141244749,-12.9038927316)
  );
#974 = CARTESIAN_POINT('',(1.417316483935,4.801268857734,-12.92473060536
    ));
#975 = CARTESIAN_POINT('',(1.231724304673,4.849792754854,-12.94291652191
    ));
#976 = CARTESIAN_POINT('',(0.761837266437,4.949914279725,-12.98070088933
    ));
#977 = CARTESIAN_POINT('',(0.472701638073,4.991947977514,-12.99683887162
    ));
#978 = CARTESIAN_POINT('',(0.17795628526,5.014345766056,-13.00554684403)
  );
#979 = CARTESIAN_POINT('',(-0.118848039142,5.016113053021,
    -13.00623438799));
#980 = CARTESIAN_POINT('',(-0.414098354145,4.997196815093,
    -12.99886982661));
#981 = CARTESIAN_POINT('',(-0.704232464237,4.958485079084,
    -12.98398340456));
#982 = CARTESIAN_POINT('',(-1.184601789093,4.861873896143,
    -12.94744949733));
#983 = CARTESIAN_POINT('',(-1.378997415936,4.812995232373,
    -12.92908919317));
#984 = CARTESIAN_POINT('',(-1.568503085371,4.755755348495,
    -12.90778942667));
#985 = CARTESIAN_POINT('',(-1.75262909405,4.69074488269,-12.88389770874)
  );
#986 = CARTESIAN_POINT('',(-1.93093247152,4.618603537833,-12.85779226144
    ));
#987 = CARTESIAN_POINT('',(-2.103017427158,4.540023720965,
    -12.82987040017));
#988 = CARTESIAN_POINT('',(-2.410352914787,4.383551544358,
    -12.77540381334));
#989 = CARTESIAN_POINT('',(-2.547501567573,4.307094867974,
    -12.74920742371));
#990 = CARTESIAN_POINT('',(-2.679977297662,4.226720375772,
    -12.72215704722));
#991 = CARTESIAN_POINT('',(-2.807787684188,4.142742247518,
    -12.69445169251));
#992 = CARTESIAN_POINT('',(-2.93095202346,4.055452956365,-12.66627903153
    ));
#993 = CARTESIAN_POINT('',(-3.049501009186,3.965123604632,
    -12.63781435422));
#994 = CARTESIAN_POINT('',(-3.329921426522,3.736016579842,
    -12.56746080266));
#995 = CARTESIAN_POINT('',(-3.486669481719,3.594032045133,-12.5254101201
    ));
#996 = CARTESIAN_POINT('',(-3.633920029866,3.446753697916,
    -12.48355155276));
#997 = CARTESIAN_POINT('',(-3.771884419309,3.294776856188,
    -12.44231065044));
#998 = CARTESIAN_POINT('',(-3.900774074112,3.138602054183,
    -12.40206126482));
#999 = CARTESIAN_POINT('',(-4.020788672989,2.978647983082,
    -12.36313237872));
#1000 = CARTESIAN_POINT('',(-4.211955512875,2.698062856652,
    -12.29904563633));
#1001 = CARTESIAN_POINT('',(-4.287327353919,2.579101252006,
    -12.27310665497));
#1002 = CARTESIAN_POINT('',(-4.35827446583,2.458524741419,-12.2481090817
    ));
#1003 = CARTESIAN_POINT('',(-4.424846300073,2.336466971101,
    -12.2241544649));
#1004 = CARTESIAN_POINT('',(-4.487087253057,2.213050166217,
    -12.20133515418));
#1005 = CARTESIAN_POINT('',(-4.545036774069,2.088385187276,
    -12.17973464372));
#1006 = CARTESIAN_POINT('',(-4.713305145086,1.694096019676,
    -12.11609507757));
#1007 = CARTESIAN_POINT('',(-4.808530107871,1.420311404159,
    -12.07864084772));
#1008 = CARTESIAN_POINT('',(-4.884613167247,1.142423040364,
    -12.04784065795));
#1009 = CARTESIAN_POINT('',(-4.941720178212,0.861514197429,
    -12.02427861841));
#1010 = CARTESIAN_POINT('',(-4.979964037877,0.578583866624,
    -12.0083480833));
#1011 = CARTESIAN_POINT('',(-4.999394678276,0.294584514747,
    -12.00025221674));
#1012 = CARTESIAN_POINT('',(-5.000491250916,-0.229596783124,
    -11.99979531265));
#1013 = CARTESIAN_POINT('',(-4.987546895294,-0.469630344292,
    -12.00518864883));
#1014 = CARTESIAN_POINT('',(-4.961165362685,-0.709057127196,
    -12.01618383064));
#1015 = CARTESIAN_POINT('',(-4.921323757702,-0.947289973154,
    -12.03268129118));
#1016 = CARTESIAN_POINT('',(-4.867970546456,-1.18372284,-12.05448279582)
  );
#1017 = CARTESIAN_POINT('',(-4.801029183819,-1.417715358489,
    -12.08129160487));
#1018 = CARTESIAN_POINT('',(-4.658257869925,-1.82651506862,
    -12.13693050086));
#1019 = CARTESIAN_POINT('',(-4.587983846857,-2.002592539736,
    -12.16388831912));
#1020 = CARTESIAN_POINT('',(-4.50951293832,-2.176557015779,
    -12.19341375628));
#1021 = CARTESIAN_POINT('',(-4.422755142677,-2.348129637545,
    -12.22530560989));
#1022 = CARTESIAN_POINT('',(-4.327600694759,-2.516997454208,
    -12.25933096291));
#1023 = CARTESIAN_POINT('',(-4.223923570811,-2.682805404642,
    -12.29522233692));
#1024 = CARTESIAN_POINT('',(-3.999892533124,-3.00655747515,
    -12.36991194514));
#1025 = CARTESIAN_POINT('',(-3.879632235833,-3.164549490223,
    -12.40869402395));
#1026 = CARTESIAN_POINT('',(-3.750629889746,-3.318778040918,
    -12.44873413843));
#1027 = CARTESIAN_POINT('',(-3.612689139833,-3.468828948254,
    -12.48970804412));
#1028 = CARTESIAN_POINT('',(-3.46560305105,-3.614207755932,
    -12.53124766257));
#1029 = CARTESIAN_POINT('',(-3.309165671548,-3.754327328965,
    -12.57293454841));
#1030 = CARTESIAN_POINT('',(-3.031427532374,-3.97883111808,
    -12.64214032461));
#1031 = CARTESIAN_POINT('',(-2.915320346998,-4.066488439244,
    -12.66984464157));
#1032 = CARTESIAN_POINT('',(-2.794824885421,-4.151233074835,
    -12.69725502655));
#1033 = CARTESIAN_POINT('',(-2.669914172594,-4.232811838051,
    -12.72420813045));
#1034 = CARTESIAN_POINT('',(-2.540571691348,-4.310952395685,
    -12.75052948649));
#1035 = CARTESIAN_POINT('',(-2.406791661002,-4.385362967558,
    -12.77603446086));
#1036 = CARTESIAN_POINT('',(-2.109738832321,-4.536603638893,
    -12.82867977671));
#1037 = CARTESIAN_POINT('',(-1.944876482491,-4.612222378723,
    -12.85552581613));
#1038 = CARTESIAN_POINT('',(-1.774288064604,-4.681937207657,
    -12.88071308244));
#1039 = CARTESIAN_POINT('',(-1.598309488774,-4.745141244749,
    -12.9038927316));
#1040 = CARTESIAN_POINT('',(-1.417316483935,-4.801268857734,
    -12.92473060536));
#1041 = CARTESIAN_POINT('',(-1.231724304673,-4.849792754854,
    -12.94291652191));
#1042 = CARTESIAN_POINT('',(-0.761837266437,-4.949914279725,
    -12.98070088933));
#1043 = CARTESIAN_POINT('',(-0.472701638073,-4.991947977514,
    -12.99683887162));
#1044 = CARTESIAN_POINT('',(-0.177956285259,-5.014345766055,
    -13.00554684403));
#1045 = CARTESIAN_POINT('',(0.118848039143,-5.016113053021,
    -13.00623438799));
#1046 = CARTESIAN_POINT('',(0.414098354144,-4.997196815093,
    -12.99886982661));
#1047 = CARTESIAN_POINT('',(0.704232464237,-4.958485079084,
    -12.98398340456));
#1048 = CARTESIAN_POINT('',(1.184601789205,-4.86187389612,
    -12.94744949732));
#1049 = CARTESIAN_POINT('',(1.378997415945,-4.812995232361,
    -12.92908919316));
#1050 = CARTESIAN_POINT('',(1.568503085287,-4.755755348515,
    -12.90778942667));
#1051 = CARTESIAN_POINT('',(1.752629093972,-4.690744882725,
    -12.88389770876));
#1052 = CARTESIAN_POINT('',(1.93093247153,-4.618603537838,
    -12.85779226144));
#1053 = CARTESIAN_POINT('',(2.103017427243,-4.540023720922,
    -12.82987040015));
#1054 = CARTESIAN_POINT('',(2.410352914787,-4.383551544358,
    -12.77540381334));
#1055 = CARTESIAN_POINT('',(2.547501567573,-4.307094867974,
    -12.74920742371));
#1056 = CARTESIAN_POINT('',(2.679977297662,-4.226720375772,
    -12.72215704722));
#1057 = CARTESIAN_POINT('',(2.807787684188,-4.142742247518,
    -12.69445169251));
#1058 = CARTESIAN_POINT('',(2.93095202346,-4.055452956365,
    -12.66627903153));
#1059 = CARTESIAN_POINT('',(3.049501009186,-3.965123604632,
    -12.63781435422));
#1060 = CARTESIAN_POINT('',(3.704006671529,-3.430384207151,
    -12.4736080589));
#1061 = CARTESIAN_POINT('',(4.14447441832,-2.923719744904,
    -12.33436494444));
#1062 = CARTESIAN_POINT('',(4.489454787034,-2.375772210278,
    -12.20820273564));
#1063 = CARTESIAN_POINT('',(4.744739165553,-1.800714181312,
    -12.10635992824));
#1064 = CARTESIAN_POINT('',(4.914305442868,-1.208469679873,
    -12.03570563354));
#1065 = CARTESIAN_POINT('',(5.,-0.606019007309,-12.));
#1066 = CARTESIAN_POINT('',(5.,-8.881784197001E-16,-12.));
#1067 = PCURVE('',#447,#1068);
#1068 = DEFINITIONAL_REPRESENTATION('',(#1069),#1180);
#1069 = B_SPLINE_CURVE_WITH_KNOTS('',7,(#1070,#1071,#1072,#1073,#1074,
    #1075,#1076,#1077,#1078,#1079,#1080,#1081,#1082,#1083,#1084,#1085,
    #1086,#1087,#1088,#1089,#1090,#1091,#1092,#1093,#1094,#1095,#1096,
    #1097,#1098,#1099,#1100,#1101,#1102,#1103,#1104,#1105,#1106,#1107,
    #1108,#1109,#1110,#1111,#1112,#1113,#1114,#1115,#1116,#1117,#1118,
    #1119,#1120,#1121,#1122,#1123,#1124,#1125,#1126,#1127,#1128,#1129,
    #1130,#1131,#1132,#1133,#1134,#1135,#1136,#1137,#1138,#1139,#1140,
    #1141,#1142,#1143,#1144,#1145,#1146,#1147,#1148,#1149,#1150,#1151,
    #1152,#1153,#1154,#1155,#1156,#1157,#1158,#1159,#1160,#1161,#1162,
    #1163,#1164,#1165,#1166,#1167,#1168,#1169,#1170,#1171,#1172,#1173,
    #1174,#1175,#1176,#1177,#1178,#1179),.UNSPECIFIED.,.F.,.F.,(8,6,6,6,
    6,6,6,6,6,6,6,6,6,6,6,6,6,6,8),(0.,0.129094684134,0.186231477781,
    0.222496348366,0.276042134698,0.31383140233,0.346209470194,
    0.393493075131,0.427411501603,0.499790550601,0.560943527795,
    0.60807738897,0.654940159012,0.686492955803,0.722754995213,
    0.776296601262,0.814082918733,0.846458458898,1.),.UNSPECIFIED.);
#1070 = CARTESIAN_POINT('',(0.,6.));
#1071 = CARTESIAN_POINT('',(0.101585739737,6.));
#1072 = CARTESIAN_POINT('',(0.202859266276,5.974917363018));
#1073 = CARTESIAN_POINT('',(0.304637742003,5.925030579832));
#1074 = CARTESIAN_POINT('',(0.407659761351,5.852268410354));
#1075 = CARTESIAN_POINT('',(0.512684791574,5.76026633808));
#1076 = CARTESIAN_POINT('',(0.620528687206,5.654597554335));
#1077 = CARTESIAN_POINT('',(0.781671041063,5.493810416849));
#1078 = CARTESIAN_POINT('',(0.831958615263,5.443254162528));
#1079 = CARTESIAN_POINT('',(0.883196988121,5.392140572147));
#1080 = CARTESIAN_POINT('',(0.935492096432,5.341243812095));
#1081 = CARTESIAN_POINT('',(0.988953687414,5.291462386697));
#1082 = CARTESIAN_POINT('',(1.043699846562,5.243823181488));
#1083 = CARTESIAN_POINT('',(1.135514208297,5.171320223288));
#1084 = CARTESIAN_POINT('',(1.171759366042,5.14447418387));
#1085 = CARTESIAN_POINT('',(1.208563405044,5.119286917559));
#1086 = CARTESIAN_POINT('',(1.245896398795,5.096107268397));
#1087 = CARTESIAN_POINT('',(1.28373494295,5.075269394633));
#1088 = CARTESIAN_POINT('',(1.322060899429,5.057083478086));
#1089 = CARTESIAN_POINT('',(1.418147974198,5.019299110664));
#1090 = CARTESIAN_POINT('',(1.476457360772,5.003161128378));
#1091 = CARTESIAN_POINT('',(1.535352919582,4.994453155969));
#1092 = CARTESIAN_POINT('',(1.594454499352,4.993765612003));
#1093 = CARTESIAN_POINT('',(1.65340118673,5.001130173389));
#1094 = CARTESIAN_POINT('',(1.711815416792,5.016016595439));
#1095 = CARTESIAN_POINT('',(1.809813051239,5.052550502669));
#1096 = CARTESIAN_POINT('',(1.84985647683,5.070910806827));
#1097 = CARTESIAN_POINT('',(1.889379583251,5.09221057333));
#1098 = CARTESIAN_POINT('',(1.928359965965,5.116102291252));
#1099 = CARTESIAN_POINT('',(1.96676899999,5.142207738556));
#1100 = CARTESIAN_POINT('',(2.004570144984,5.17012959983));
#1101 = CARTESIAN_POINT('',(2.07354510972,5.22459618666));
#1102 = CARTESIAN_POINT('',(2.104926940348,5.250792576282));
#1103 = CARTESIAN_POINT('',(2.135884039926,5.277842952776));
#1104 = CARTESIAN_POINT('',(2.166435355803,5.305548307484));
#1105 = CARTESIAN_POINT('',(2.196598259541,5.333720968464));
#1106 = CARTESIAN_POINT('',(2.226389321515,5.362185645772));
#1107 = CARTESIAN_POINT('',(2.298811870287,5.432539197333));
#1108 = CARTESIAN_POINT('',(2.341055716265,5.474589879895));
#1109 = CARTESIAN_POINT('',(2.382627933457,5.516448447236));
#1110 = CARTESIAN_POINT('',(2.423595965468,5.557689349557));
#1111 = CARTESIAN_POINT('',(2.464024626914,5.597938735176));
#1112 = CARTESIAN_POINT('',(2.503977340859,5.636867621276));
#1113 = CARTESIAN_POINT('',(2.571881029668,5.700954363666));
#1114 = CARTESIAN_POINT('',(2.600031171263,5.726893345024));
#1115 = CARTESIAN_POINT('',(2.627987215385,5.751890918294));
#1116 = CARTESIAN_POINT('',(2.655767416306,5.775845535097));
#1117 = CARTESIAN_POINT('',(2.683389384418,5.798664845812));
#1118 = CARTESIAN_POINT('',(2.71087060244,5.820265356277));
#1119 = CARTESIAN_POINT('',(2.796609320035,5.883904922429));
#1120 = CARTESIAN_POINT('',(2.854447322802,5.921359152273));
#1121 = CARTESIAN_POINT('',(2.911862141906,5.952159342043));
#1122 = CARTESIAN_POINT('',(2.968966081544,5.975721381585));
#1123 = CARTESIAN_POINT('',(3.025867812209,5.991651916699));
#1124 = CARTESIAN_POINT('',(3.082675624772,5.999747783257));
#1125 = CARTESIAN_POINT('',(3.187512113746,6.00020468735));
#1126 = CARTESIAN_POINT('',(3.235513289406,5.994811351166));
#1127 = CARTESIAN_POINT('',(3.2835682857,5.983816169353));
#1128 = CARTESIAN_POINT('',(3.331740049347,5.96731870882));
#1129 = CARTESIAN_POINT('',(3.380091653809,5.94551720418));
#1130 = CARTESIAN_POINT('',(3.428687553472,5.91870839513));
#1131 = CARTESIAN_POINT('',(3.515290290398,5.863069499131));
#1132 = CARTESIAN_POINT('',(3.553170602708,5.836111680878));
#1133 = CARTESIAN_POINT('',(3.591280044296,5.806586243716));
#1134 = CARTESIAN_POINT('',(3.629663124024,5.774694390104));
#1135 = CARTESIAN_POINT('',(3.668365311427,5.740669037089));
#1136 = CARTESIAN_POINT('',(3.707433758058,5.70477766308));
#1137 = CARTESIAN_POINT('',(3.786175185276,5.630088054851));
#1138 = CARTESIAN_POINT('',(3.82584535148,5.591305976041));
#1139 = CARTESIAN_POINT('',(3.865990479174,5.551265861566));
#1140 = CARTESIAN_POINT('',(3.906672669405,5.510291955879));
#1141 = CARTESIAN_POINT('',(3.947955365626,5.46875233743));
#1142 = CARTESIAN_POINT('',(3.989904556786,5.427065451586));
#1143 = CARTESIAN_POINT('',(4.061330161517,5.357859675382));
#1144 = CARTESIAN_POINT('',(4.090410360321,5.330155358427));
#1145 = CARTESIAN_POINT('',(4.119845718061,5.302744973445));
#1146 = CARTESIAN_POINT('',(4.149651446991,5.275791869542));
#1147 = CARTESIAN_POINT('',(4.179843508538,5.249470513503));
#1148 = CARTESIAN_POINT('',(4.210439291451,5.223965539133));
#1149 = CARTESIAN_POINT('',(4.277106861886,5.171320223288));
#1150 = CARTESIAN_POINT('',(4.313352019632,5.14447418387));
#1151 = CARTESIAN_POINT('',(4.350156058633,5.119286917559));
#1152 = CARTESIAN_POINT('',(4.387489052385,5.096107268397));
#1153 = CARTESIAN_POINT('',(4.425327596539,5.075269394633));
#1154 = CARTESIAN_POINT('',(4.463653553018,5.057083478086));
#1155 = CARTESIAN_POINT('',(4.559740627788,5.019299110664));
#1156 = CARTESIAN_POINT('',(4.618050014361,5.003161128378));
#1157 = CARTESIAN_POINT('',(4.676945573172,4.994453155969));
#1158 = CARTESIAN_POINT('',(4.736047152942,4.993765612003));
#1159 = CARTESIAN_POINT('',(4.794993840319,5.001130173389));
#1160 = CARTESIAN_POINT('',(4.853408070382,5.016016595439));
#1161 = CARTESIAN_POINT('',(4.951405704852,5.052550502678));
#1162 = CARTESIAN_POINT('',(4.991449130423,5.070910806831));
#1163 = CARTESIAN_POINT('',(5.030972236824,5.092210573323));
#1164 = CARTESIAN_POINT('',(5.069952619537,5.11610229124));
#1165 = CARTESIAN_POINT('',(5.108361653582,5.142207738555));
#1166 = CARTESIAN_POINT('',(5.146162798593,5.170129599845));
#1167 = CARTESIAN_POINT('',(5.21513776331,5.22459618666));
#1168 = CARTESIAN_POINT('',(5.246519593938,5.250792576282));
#1169 = CARTESIAN_POINT('',(5.277476693516,5.277842952776));
#1170 = CARTESIAN_POINT('',(5.308028009392,5.305548307484));
#1171 = CARTESIAN_POINT('',(5.338190913131,5.333720968464));
#1172 = CARTESIAN_POINT('',(5.367981975105,5.362185645772));
#1173 = CARTESIAN_POINT('',(5.537017342441,5.526391941093));
#1174 = CARTESIAN_POINT('',(5.669350998316,5.665635055557));
#1175 = CARTESIAN_POINT('',(5.796555422443,5.791797264359));
#1176 = CARTESIAN_POINT('',(5.920132305026,5.89364007176));
#1177 = CARTESIAN_POINT('',(6.0414919003,5.964294366453));
#1178 = CARTESIAN_POINT('',(6.161981505718,6.));
#1179 = CARTESIAN_POINT('',(6.28318530718,6.));
#1180 = ( GEOMETRIC_REPRESENTATION_CONTEXT(2) 
PARAMETRIC_REPRESENTATION_CONTEXT() REPRESENTATION_CONTEXT('2D SPACE',''
  ) );
#1181 = PCURVE('',#537,#1182);
#1182 = DEFINITIONAL_REPRESENTATION('',(#1183),#1294);
#1183 = B_SPLINE_CURVE_WITH_KNOTS('',7,(#1184,#1185,#1186,#1187,#1188,
    #1189,#1190,#1191,#1192,#1193,#1194,#1195,#1196,#1197,#1198,#1199,
    #1200,#1201,#1202,#1203,#1204,#1205,#1206,#1207,#1208,#1209,#1210,
    #1211,#1212,#1213,#1214,#1215,#1216,#1217,#1218,#1219,#1220,#1221,
    #1222,#1223,#1224,#1225,#1226,#1227,#1228,#1229,#1230,#1231,#1232,
    #1233,#1234,#1235,#1236,#1237,#1238,#1239,#1240,#1241,#1242,#1243,
    #1244,#1245,#1246,#1247,#1248,#1249,#1250,#1251,#1252,#1253,#1254,
    #1255,#1256,#1257,#1258,#1259,#1260,#1261,#1262,#1263,#1264,#1265,
    #1266,#1267,#1268,#1269,#1270,#1271,#1272,#1273,#1274,#1275,#1276,
    #1277,#1278,#1279,#1280,#1281,#1282,#1283,#1284,#1285,#1286,#1287,
    #1288,#1289,#1290,#1291,#1292,#1293),.UNSPECIFIED.,.T.,.F.,(8,6,6,6,
    6,6,6,6,6,6,6,6,6,6,6,6,6,6,8),(0.,0.129094684134,0.186231477781,
    0.222496348366,0.276042134698,0.31383140233,0.346209470194,
    0.393493075131,0.427411501603,0.499790550601,0.560943527795,
    0.60807738897,0.654940159012,0.686492955803,0.722754995213,
    0.776296601262,0.814082918733,0.846458458898,1.),.UNSPECIFIED.);
#1184 = CARTESIAN_POINT('',(5.107180100084,151.));
#1185 = CARTESIAN_POINT('',(5.107180100084,150.49207130131));
#1186 = CARTESIAN_POINT('',(5.102163595461,149.98570310583));
#1187 = CARTESIAN_POINT('',(5.09218609733,149.48537481096));
#1188 = CARTESIAN_POINT('',(5.07725366637,148.99570608699));
#1189 = CARTESIAN_POINT('',(5.057353046729,148.52237176608));
#1190 = CARTESIAN_POINT('',(5.032446891411,148.07270397994));
#1191 = CARTESIAN_POINT('',(4.989206193233,147.4735088028));
#1192 = CARTESIAN_POINT('',(4.974922177194,147.29605061723));
#1193 = CARTESIAN_POINT('',(4.959606580539,147.12591067622));
#1194 = CARTESIAN_POINT('',(4.94324550538,146.96421037965));
#1195 = CARTESIAN_POINT('',(4.92582720524,146.81227903208));
#1196 = CARTESIAN_POINT('',(4.90734386244,146.67168452304));
#1197 = CARTESIAN_POINT('',(4.875384231277,146.4633963611));
#1198 = CARTESIAN_POINT('',(4.862536720211,146.38777762127));
#1199 = CARTESIAN_POINT('',(4.849274674993,146.31806279234));
#1200 = CARTESIAN_POINT('',(4.835624061075,146.25485875525));
#1201 = CARTESIAN_POINT('',(4.821612691571,146.19873114226));
#1202 = CARTESIAN_POINT('',(4.807270186626,146.15020724514));
#1203 = CARTESIAN_POINT('',(4.771008360388,146.05008572027));
#1204 = CARTESIAN_POINT('',(4.748739183675,146.00805202248));
#1205 = CARTESIAN_POINT('',(4.726069333605,145.98565423394));
#1206 = CARTESIAN_POINT('',(4.703253307366,145.98388694697));
#1207 = CARTESIAN_POINT('',(4.680547552165,146.0028031849));
#1208 = CARTESIAN_POINT('',(4.658206938213,146.04151492091));
#1209 = CARTESIAN_POINT('',(4.621148738772,146.13812610385));
#1210 = CARTESIAN_POINT('',(4.606131199539,146.18700476762));
#1211 = CARTESIAN_POINT('',(4.591465652964,146.2442446515));
#1212 = CARTESIAN_POINT('',(4.577186955057,146.30925511731));
#1213 = CARTESIAN_POINT('',(4.563327826283,146.38139646216));
#1214 = CARTESIAN_POINT('',(4.549918809769,146.45997627903));
#1215 = CARTESIAN_POINT('',(4.525909231917,146.61644845564));
#1216 = CARTESIAN_POINT('',(4.515169564144,146.69290513202));
#1217 = CARTESIAN_POINT('',(4.504770152428,146.77327962422));
#1218 = CARTESIAN_POINT('',(4.494711485108,146.85725775248));
#1219 = CARTESIAN_POINT('',(4.48499353463,146.94454704363));
#1220 = CARTESIAN_POINT('',(4.475615679552,147.03487639536));
#1221 = CARTESIAN_POINT('',(4.453376363565,147.26398342015));
#1222 = CARTESIAN_POINT('',(4.440894122333,147.40596795486));
#1223 = CARTESIAN_POINT('',(4.429120366649,147.55324630208));
#1224 = CARTESIAN_POINT('',(4.418045326404,147.70522314381));
#1225 = CARTESIAN_POINT('',(4.407659581227,147.86139794581));
#1226 = CARTESIAN_POINT('',(4.397954644122,148.02135201691));
#1227 = CARTESIAN_POINT('',(4.382445175508,148.30193714334));
#1228 = CARTESIAN_POINT('',(4.376313802208,148.42089874799));
#1229 = CARTESIAN_POINT('',(4.370527717418,148.54147525858));
#1230 = CARTESIAN_POINT('',(4.365085563117,148.66353302889));
#1231 = CARTESIAN_POINT('',(4.35998628355,148.78694983378));
#1232 = CARTESIAN_POINT('',(4.355229077734,148.91161481272));
#1233 = CARTESIAN_POINT('',(4.341390567223,149.30590398032));
#1234 = CARTESIAN_POINT('',(4.333519955139,149.57968859584));
#1235 = CARTESIAN_POINT('',(4.327206463719,149.85757695963));
#1236 = CARTESIAN_POINT('',(4.322454428376,150.13848580257));
#1237 = CARTESIAN_POINT('',(4.319267455185,150.42141613337));
#1238 = CARTESIAN_POINT('',(4.317648304143,150.70541548525));
#1239 = CARTESIAN_POINT('',(4.317556923124,151.22959678312));
#1240 = CARTESIAN_POINT('',(4.318635592375,151.46963034429));
#1241 = CARTESIAN_POINT('',(4.320834180704,151.70905712719));
#1242 = CARTESIAN_POINT('',(4.324151260299,151.94728997315));
#1243 = CARTESIAN_POINT('',(4.328584623572,152.18372284));
#1244 = CARTESIAN_POINT('',(4.334131331726,152.41771535848));
#1245 = CARTESIAN_POINT('',(4.345918230184,152.82651506862));
#1246 = CARTESIAN_POINT('',(4.351707933195,153.00259253973));
#1247 = CARTESIAN_POINT('',(4.358157084269,153.17655701577));
#1248 = CARTESIAN_POINT('',(4.365266963712,153.34812963754));
#1249 = CARTESIAN_POINT('',(4.373039826177,153.5169974542));
#1250 = CARTESIAN_POINT('',(4.381478806624,153.68280540464));
#1251 = CARTESIAN_POINT('',(4.399644455236,154.00655747515));
#1252 = CARTESIAN_POINT('',(4.409363895754,154.16454949022));
#1253 = CARTESIAN_POINT('',(4.419753127461,154.31877804091));
#1254 = CARTESIAN_POINT('',(4.430820561623,154.46882894825));
#1255 = CARTESIAN_POINT('',(4.442575469703,154.61420775593));
#1256 = CARTESIAN_POINT('',(4.455027411938,154.75432732896));
#1257 = CARTESIAN_POINT('',(4.477045144626,154.97883111808));
#1258 = CARTESIAN_POINT('',(4.486226741345,155.06648843924));
#1259 = CARTESIAN_POINT('',(4.495731551648,155.15123307483));
#1260 = CARTESIAN_POINT('',(4.505560057942,155.23281183805));
#1261 = CARTESIAN_POINT('',(4.515712198532,155.31095239568));
#1262 = CARTESIAN_POINT('',(4.526187436693,155.38536296755));
#1263 = CARTESIAN_POINT('',(4.549393729492,155.53660363889));
#1264 = CARTESIAN_POINT('',(4.562241240558,155.61222237872));
#1265 = CARTESIAN_POINT('',(4.575503285777,155.68193720765));
#1266 = CARTESIAN_POINT('',(4.589153899694,155.74514124474));
#1267 = CARTESIAN_POINT('',(4.603165269199,155.80126885773));
#1268 = CARTESIAN_POINT('',(4.617507774143,155.84979275485));
#1269 = CARTESIAN_POINT('',(4.653769600382,155.94991427972));
#1270 = CARTESIAN_POINT('',(4.676038777095,155.99194797751));
#1271 = CARTESIAN_POINT('',(4.698708627164,156.01434576605));
#1272 = CARTESIAN_POINT('',(4.721524653403,156.01611305302));
#1273 = CARTESIAN_POINT('',(4.744230408604,155.99719681509));
#1274 = CARTESIAN_POINT('',(4.766571022556,155.95848507908));
#1275 = CARTESIAN_POINT('',(4.803629222006,155.86187389612));
#1276 = CARTESIAN_POINT('',(4.818646761231,155.81299523236));
#1277 = CARTESIAN_POINT('',(4.833312307799,155.75575534851));
#1278 = CARTESIAN_POINT('',(4.847591005706,155.69074488272));
#1279 = CARTESIAN_POINT('',(4.861450134487,155.61860353783));
#1280 = CARTESIAN_POINT('',(4.874859151007,155.54002372092));
#1281 = CARTESIAN_POINT('',(4.898868728852,155.38355154435));
#1282 = CARTESIAN_POINT('',(4.909608396625,155.30709486797));
#1283 = CARTESIAN_POINT('',(4.920007808341,155.22672037577));
#1284 = CARTESIAN_POINT('',(4.930066475661,155.14274224751));
#1285 = CARTESIAN_POINT('',(4.939784426139,155.05545295636));
#1286 = CARTESIAN_POINT('',(4.949162281217,154.96512360463));
#1287 = CARTESIAN_POINT('',(5.00106919434,154.43038420715));
#1288 = CARTESIAN_POINT('',(5.036539301004,153.9237197449));
#1289 = CARTESIAN_POINT('',(5.064768803373,153.37577221027));
#1290 = CARTESIAN_POINT('',(5.085908249182,152.80071418131));
#1291 = CARTESIAN_POINT('',(5.100038913342,152.20846967987));
#1292 = CARTESIAN_POINT('',(5.107180100084,151.6060190073));
#1293 = CARTESIAN_POINT('',(5.107180100084,151.));
#1294 = ( GEOMETRIC_REPRESENTATION_CONTEXT(2) 
PARAMETRIC_REPRESENTATION_CONTEXT() REPRESENTATION_CONTEXT('2D SPACE',''
  ) );
#1295 = ORIENTED_EDGE('',*,*,#1296,.F.);
#1296 = EDGE_CURVE('',#322,#953,#1297,.T.);
#1297 = SEAM_CURVE('',#1298,(#1302,#1309),.PCURVE_S1.);
#1298 = LINE('',#1299,#1300);
#1299 = CARTESIAN_POINT('',(5.,-1.224646799147E-15,-18.));
#1300 = VECTOR('',#1301,1.);
#1301 = DIRECTION('',(0.,0.,1.));
#1302 = PCURVE('',#447,#1303);
#1303 = DEFINITIONAL_REPRESENTATION('',(#1304),#1308);
#1304 = LINE('',#1305,#1306);
#1305 = CARTESIAN_POINT('',(6.28318530718,-0.));
#1306 = VECTOR('',#1307,1.);
#1307 = DIRECTION('',(0.,1.));
#1308 = ( GEOMETRIC_REPRESENTATION_CONTEXT(2) 
PARAMETRIC_REPRESENTATION_CONTEXT() REPRESENTATION_CONTEXT('2D SPACE',''
  ) );
#1309 = PCURVE('',#447,#1310);
#1310 = DEFINITIONAL_REPRESENTATION('',(#1311),#1315);
#1311 = LINE('',#1312,#1313);
#1312 = CARTESIAN_POINT('',(0.,-0.));
#1313 = VECTOR('',#1314,1.);
#1314 = DIRECTION('',(0.,1.));
#1315 = ( GEOMETRIC_REPRESENTATION_CONTEXT(2) 
PARAMETRIC_REPRESENTATION_CONTEXT() REPRESENTATION_CONTEXT('2D SPACE',''
  ) );
#1316 = ORIENTED_EDGE('',*,*,#321,.T.);
#1317 = ORIENTED_EDGE('',*,*,#1296,.T.);
#1318 = ADVANCED_FACE('',(#1319,#1345,#1348),#537,.F.);
#1319 = FACE_BOUND('',#1320,.F.);
#1320 = EDGE_LOOP('',(#1321,#1342,#1343,#1344));
#1321 = ORIENTED_EDGE('',*,*,#1322,.T.);
#1322 = EDGE_CURVE('',#521,#556,#1323,.T.);
#1323 = SEAM_CURVE('',#1324,(#1328,#1335),.PCURVE_S1.);
#1324 = LINE('',#1325,#1326);
#1325 = CARTESIAN_POINT('',(13.,151.,-3.671281702146E-14));
#1326 = VECTOR('',#1327,1.);
#1327 = DIRECTION('',(0.,-1.,2.22044604925E-16));
#1328 = PCURVE('',#537,#1329);
#1329 = DEFINITIONAL_REPRESENTATION('',(#1330),#1334);
#1330 = LINE('',#1331,#1332);
#1331 = CARTESIAN_POINT('',(6.28318530718,-0.));
#1332 = VECTOR('',#1333,1.);
#1333 = DIRECTION('',(0.,1.));
#1334 = ( GEOMETRIC_REPRESENTATION_CONTEXT(2) 
PARAMETRIC_REPRESENTATION_CONTEXT() REPRESENTATION_CONTEXT('2D SPACE',''
  ) );
#1335 = PCURVE('',#537,#1336);
#1336 = DEFINITIONAL_REPRESENTATION('',(#1337),#1341);
#1337 = LINE('',#1338,#1339);
#1338 = CARTESIAN_POINT('',(0.,-0.));
#1339 = VECTOR('',#1340,1.);
#1340 = DIRECTION('',(0.,1.));
#1341 = ( GEOMETRIC_REPRESENTATION_CONTEXT(2) 
PARAMETRIC_REPRESENTATION_CONTEXT() REPRESENTATION_CONTEXT('2D SPACE',''
  ) );
#1342 = ORIENTED_EDGE('',*,*,#555,.F.);
#1343 = ORIENTED_EDGE('',*,*,#1322,.F.);
#1344 = ORIENTED_EDGE('',*,*,#520,.T.);
#1345 = FACE_BOUND('',#1346,.F.);
#1346 = EDGE_LOOP('',(#1347));
#1347 = ORIENTED_EDGE('',*,*,#606,.F.);
#1348 = FACE_BOUND('',#1349,.F.);
#1349 = EDGE_LOOP('',(#1350));
#1350 = ORIENTED_EDGE('',*,*,#952,.T.);
#1351 = ( GEOMETRIC_REPRESENTATION_CONTEXT(3) 
GLOBAL_UNCERTAINTY_ASSIGNED_CONTEXT((#1355)) 
GLOBAL_UNIT_ASSIGNED_CONTEXT((#1352,#1353,#1354)) REPRESENTATION_CONTEXT
('Context #1','3D Context with UNIT and UNCERTAINTY') );
#1352 = ( LENGTH_UNIT() NAMED_UNIT(*) SI_UNIT(.MILLI.,.METRE.) );
#1353 = ( NAMED_UNIT(*) PLANE_ANGLE_UNIT() SI_UNIT($,.RADIAN.) );
#1354 = ( NAMED_UNIT(*) SI_UNIT($,.STERADIAN.) SOLID_ANGLE_UNIT() );
#1355 = UNCERTAINTY_MEASURE_WITH_UNIT(LENGTH_MEASURE(2.E-07),#1352,
  'distance_accuracy_value','confusion accuracy');
#1356 = CONTEXT_DEPENDENT_SHAPE_REPRESENTATION(#1357,#1359);
#1357 = ( REPRESENTATION_RELATIONSHIP('','',#32,#10) 
REPRESENTATION_RELATIONSHIP_WITH_TRANSFORMATION(#1358) 
SHAPE_REPRESENTATION_RELATIONSHIP() );
#1358 = ITEM_DEFINED_TRANSFORMATION('','',#11,#15);
#1359 = PRODUCT_DEFINITION_SHAPE('Placement','Placement of an item',
  #1360);
#1360 = NEXT_ASSEMBLY_USAGE_OCCURRENCE('2','=>[0:1:1:2]','',#5,#27,$);
#1361 = PRODUCT_RELATED_PRODUCT_CATEGORY('part',$,(#29));
ENDSEC;
END-ISO-10303-21;
